mtllib material_0.mtl
usemtl material_0
v 0.093563 0.160747 0.124608
v 0.092563 0.160747 0.12434
v 0.091563 0.160747 0.124608
v 0.090831 0.160747 0.12534
v 0.090563 0.160747 0.12634
v 0.108563 0.160747 0.133268
v 0.108563 0.160747 0.133268
v 0.108563 0.160747 0.136732
v 0.109295 0.160747 0.136
v 0.109563 0.160747 0.135
v 0.109563 0.160747 0.135
v 0.109295 0.160747 0.134
v 0.093563 0.160747 0.145392
v 0.090563 0.160747 0.14366
v 0.090831 0.160747 0.14466
v 0.091563 0.160747 0.145392
v 0.092563 0.160747 0.14566
vn 0 1 0
vn 0 1 0
vn 0 1 0
vn 0 1 0
vn 0 1 0
vn 0 1 0
vn -0.0001 1 0
vn 0 1 0
vn 0 1 0
vn -0.0001 1 0
vn 0 1 0
vn -0.0001 1 0
vn 0 1 0
vn 0 1 0
vn 0 1 0
vn 0 1 0
vn 0 1 0
vt 0.58420600 0.91833900
vt 0.55755000 0.95326000
vt 0.52113700 0.96604100
vt 0.48472200 0.95326000
vt 0.45806600 0.91833800
vt 0.89956000 0.20280500
vt 0.89956000 0.20280500
vt 0.83648900 0.05969800
vt 0.87290300 0.07248000
vt 0.89956000 0.10740100
vt 0.89956000 0.10740100
vt 0.90931700 0.15510400
vt 0.20578200 0.05970000
vt 0.14271200 0.20280700
vt 0.13295400 0.15510500
vt 0.14271200 0.10740200
vt 0.16936800 0.07248100
f 5/5/5 13/13/13 8/8/8
f 3/3/3 4/4/4 5/5/5
f 10/10/10 12/12/12 7/7/7
f 16/16/16 17/17/17 15/15/15
f 15/15/15 17/17/17 13/13/13
f 15/15/15 13/13/13 14/14/14
f 14/14/14 13/13/13 5/5/5
f 8/8/8 9/9/9 11/11/11
f 11/11/11 6/6/6 8/8/8
f 8/8/8 6/6/6 1/1/1
f 8/8/8 1/1/1 5/5/5
f 5/5/5 1/1/1 2/2/2
f 5/5/5 2/2/2 3/3/3
