mtllib material_0.mtl
usemtl material_0
v 0.251137 0.113513 -0.00259
v 0.257137 0.113513 -0.00259
v 0.251137 0.113934 -0.003498
v 0.251137 0.113934 -0.003498
v 0.257137 0.113934 -0.003498
v 0.257137 0.113934 -0.003498
v 0.251137 0.114387 -0.004389
v 0.257137 0.114387 -0.004389
vn 0 0.9074 0.4203
vn 0 0.9074 0.4203
vn 0 0.8912 0.4536
vn 0 0.9074 0.4203
vn 0 0.8912 0.4536
vn 0 0.9074 0.4203
vn 0 0.8912 0.4536
vn 0 0.8912 0.4536
vt 0.00000000 0.00000000
vt 0.00000000 0.00000000
vt 0.00000000 0.00000000
vt 0.00000000 0.00000000
vt 0.00000000 0.00000000
vt 0.00000000 0.00000000
vt 0.00000000 0.00000000
vt 0.00000000 0.00000000
f 1/1/1 2/2/2 4/4/4
f 4/4/4 2/2/2 6/6/6
f 3/3/3 5/5/5 7/7/7
f 7/7/7 5/5/5 8/8/8
