mtllib material_0.mtl
usemtl material_0
v 0.191968 0.16 0.015172
v 0.191968 0.16 0.015172
v 0.191824 0.16 0.015899
v 0.191412 0.16 0.016515
v 0.191412 0.16 0.016515
v 0.190795 0.16 0.016927
v 0.190068 0.16 0.017072
v 0.189341 0.16 0.016927
v 0.188725 0.16 0.016515
v 0.188313 0.16 0.015899
v 0.188168 0.16 0.015172
v 0.188168 0.16 -0.015828
v 0.188313 0.16 -0.016555
v 0.188725 0.16 -0.017172
v 0.189341 0.16 -0.017583
v 0.190068 0.16 -0.017728
v 0.190795 0.16 -0.017583
v 0.191412 0.16 -0.017172
v 0.191824 0.16 -0.016555
v 0.191968 0.16 -0.015828
vn 0 1 0
vn 0.0001 1 0
vn 0.0001 1 0
vn 0.0001 1 0
vn 0 1 0
vn 0 1 0
vn 0 1 0
vn 0 1 0
vn 0 1 0
vn 0 1 0
vn 0 1 0
vn 0 1 0
vn 0 1 0
vn 0 1 0
vn 0 1 0
vn 0 1 0
vn 0 1 0
vn 0 1 0
vn 0 1 0
vn 0 1 0
vt 0.00000000 0.00000000
vt 0.00000000 0.00000000
vt 0.00000000 0.00000000
vt 0.00000000 0.00000000
vt 0.00000000 0.00000000
vt 0.00000000 0.00000000
vt 0.00000000 0.00000000
vt 0.00000000 0.00000000
vt 0.00000000 0.00000000
vt 0.00000000 0.00000000
vt 0.00000000 0.00000000
vt 0.00000000 0.00000000
vt 0.00000000 0.00000000
vt 0.00000000 0.00000000
vt 0.00000000 0.00000000
vt 0.00000000 0.00000000
vt 0.00000000 0.00000000
vt 0.00000000 0.00000000
vt 0.00000000 0.00000000
vt 0.00000000 0.00000000
f 4/4/4 3/3/3 2/2/2
f 18/18/18 17/17/17 19/19/19
f 19/19/19 17/17/17 12/12/12
f 19/19/19 12/12/12 20/20/20
f 13/13/13 12/12/12 14/14/14
f 14/14/14 12/12/12 17/17/17
f 14/14/14 17/17/17 15/15/15
f 15/15/15 17/17/17 16/16/16
f 20/20/20 12/12/12 1/1/1
f 1/1/1 12/12/12 11/11/11
f 1/1/1 11/11/11 5/5/5
f 9/9/9 8/8/8 7/7/7
f 11/11/11 10/10/10 5/5/5
f 5/5/5 10/10/10 9/9/9
f 5/5/5 9/9/9 6/6/6
f 6/6/6 9/9/9 7/7/7
