mtllib material_0.mtl
usemtl material_0
v -0.048302 0.036104 0.070501
v -0.048302 0.036104 0.070501
v -0.047776 0.036104 0.072012
v -0.047776 0.036104 0.072012
v -0.039471 0.036104 0.067473
v -0.039471 0.036104 0.067473
v -0.038945 0.036104 0.068985
v -0.038945 0.036104 0.068985
v -0.047776 0.041805 0.072012
v -0.047776 0.041805 0.072012
v -0.047776 0.041805 0.072012
v -0.047776 0.041805 0.072012
v -0.048302 0.041805 0.070501
v -0.048302 0.041805 0.070501
v -0.048302 0.041805 0.070501
v -0.048302 0.041805 0.070501
v -0.038945 0.041805 0.068985
v -0.038945 0.041805 0.068985
v -0.038945 0.041805 0.068985
v -0.038945 0.041805 0.068985
v -0.039471 0.041805 0.067473
v -0.039471 0.041805 0.067473
v -0.039471 0.041805 0.067473
v -0.039471 0.041805 0.067473
v -0.039471 0.041805 0.067473
v -0.047455 0.042328 0.071837
v -0.047455 0.042328 0.071837
v -0.047455 0.042328 0.071837
v -0.04794 0.042328 0.070442
v -0.04794 0.042328 0.070442
v -0.04794 0.042328 0.070442
v -0.039307 0.042328 0.069044
v -0.039307 0.042328 0.069044
v -0.039307 0.042328 0.069044
v -0.039307 0.042328 0.069044
v -0.039792 0.042328 0.067649
v -0.039792 0.042328 0.067649
v -0.039792 0.042328 0.067649
vn 0.3243 0 0.946
vn 0.9445 0 -0.3284
vn -0.3243 0 -0.946
vn 0.9445 0 -0.3284
vn 0.3243 0 0.946
vn -0.9445 0 0.3285
vn -0.9445 0 0.3285
vn -0.3243 0 -0.946
vn 0.9445 0 -0.3284
vn -0.3243 0 -0.946
vn 0.7771 -0.5685 -0.2702
vn -0.322 -0.1177 -0.9394
vn 0.9445 0 -0.3284
vn 0.3243 0 0.946
vn 0.7771 -0.5685 -0.2702
vn 0.322 -0.1177 0.9394
vn -0.3243 0 -0.946
vn -0.7771 -0.5684 0.2702
vn -0.322 -0.1177 -0.9394
vn -0.9445 0 0.3285
vn -0.9445 0 0.3285
vn -0.7771 -0.5684 0.2702
vn -0.7771 -0.5684 0.2703
vn 0.322 -0.1177 0.9394
vn 0.3243 0 0.946
vn 0.7771 -0.5685 -0.2702
vn 0 -1 0
vn -0.322 -0.1177 -0.9394
vn 0.7771 -0.5685 -0.2702
vn 0 -1 0
vn 0.322 -0.1177 0.9394
vn -0.322 -0.1177 -0.9394
vn 0 -1 0
vn -0.7771 -0.5684 0.2703
vn -0.7771 -0.5684 0.2702
vn -0.7771 -0.5684 0.2703
vn 0.322 -0.1177 0.9394
vn 0 -1 0
vt 0.00000000 0.00000000
vt 0.00000000 0.00000000
vt 0.00000000 0.00000000
vt 0.00000000 0.00000000
vt 0.00000000 0.00000000
vt 0.00000000 0.00000000
vt 0.00000000 0.00000000
vt 0.00000000 0.00000000
vt 0.00000000 0.00000000
vt 0.00000000 0.00000000
vt 0.00000000 0.00000000
vt 0.00000000 0.00000000
vt 0.00000000 0.00000000
vt 0.00000000 0.00000000
vt 0.00000000 0.00000000
vt 0.00000000 0.00000000
vt 0.00000000 0.00000000
vt 0.00000000 0.00000000
vt 0.00000000 0.00000000
vt 0.00000000 0.00000000
vt 0.00000000 0.00000000
vt 0.00000000 0.00000000
vt 0.00000000 0.00000000
vt 0.00000000 0.00000000
vt 0.00000000 0.00000000
vt 0.00000000 0.00000000
vt 0.00000000 0.00000000
vt 0.00000000 0.00000000
vt 0.00000000 0.00000000
vt 0.00000000 0.00000000
vt 0.00000000 0.00000000
vt 0.00000000 0.00000000
vt 0.00000000 0.00000000
vt 0.00000000 0.00000000
vt 0.00000000 0.00000000
vt 0.00000000 0.00000000
vt 0.00000000 0.00000000
vt 0.00000000 0.00000000
f 24/24/24 31/31/31 16/16/16
f 2/2/2 9/9/9 4/4/4
f 5/5/5 14/14/14 1/1/1
f 7/7/7 21/21/21 6/6/6
f 3/3/3 17/17/17 8/8/8
f 38/38/38 27/27/27 30/30/30
f 23/23/23 34/34/34 36/36/36
f 12/12/12 32/32/32 19/19/19
f 11/11/11 29/29/29 26/26/26
f 24/24/24 37/37/37 31/31/31
f 2/2/2 13/13/13 9/9/9
f 5/5/5 25/25/25 14/14/14
f 7/7/7 20/20/20 21/21/21
f 3/3/3 10/10/10 17/17/17
f 38/38/38 33/33/33 27/27/27
f 22/22/22 18/18/18 35/35/35
f 12/12/12 28/28/28 32/32/32
f 11/11/11 15/15/15 29/29/29
