mtllib material_0.mtl
usemtl material_0
v -0.0149 0.062191 -0.011911
v -0.014168 0.062191 -0.012643
v -0.0139 0.062191 -0.013643
v -0.014168 0.062191 -0.014643
v -0.0149 0.062191 -0.015375
v -0.0299 0.062191 -0.003251
v -0.0329 0.062191 -0.004983
v -0.032632 0.062191 -0.003983
v -0.0319 0.062191 -0.003251
v -0.0309 0.062191 -0.002983
v -0.0329 0.062191 -0.022304
v -0.0299 0.062191 -0.024036
v -0.0309 0.062191 -0.024303
v -0.0319 0.062191 -0.024036
v -0.032632 0.062191 -0.023303
vn 0 1 0
vn 0 1 0
vn 0 1 0
vn 0 1 0
vn 0 1 0
vn 0 1 0
vn 0 1 0
vn 0 1 0
vn 0 1 0
vn 0 1 0
vn 0 1 0
vn 0 1 0
vn 0 1 0
vn 0 1 0
vn 0 1 0
vt 0.59209100 0.92278300
vt 0.56127100 0.96380600
vt 0.52202900 0.97882100
vt 0.48278700 0.96380600
vt 0.44883000 0.92278300
vt 0.92984600 0.24126700
vt 0.86187600 0.07315000
vt 0.90111800 0.08816600
vt 0.92984600 0.12918900
vt 0.94036000 0.18522800
vt 0.18218200 0.07315000
vt 0.11421300 0.24126700
vt 0.10369800 0.18522800
vt 0.11421300 0.12918900
vt 0.14294000 0.08816600
f 3/3/3 4/4/4 5/5/5
f 9/9/9 10/10/10 8/8/8
f 8/8/8 10/10/10 6/6/6
f 8/8/8 6/6/6 7/7/7
f 7/7/7 6/6/6 11/11/11
f 3/3/3 5/5/5 2/2/2
f 14/14/14 15/15/15 13/13/13
f 13/13/13 15/15/15 11/11/11
f 13/13/13 11/11/11 12/12/12
f 12/12/12 11/11/11 6/6/6
f 12/12/12 6/6/6 5/5/5
f 5/5/5 6/6/6 1/1/1
f 5/5/5 1/1/1 2/2/2
