mtllib material_0.mtl
usemtl material_0
v 0.040951 0.023844 0.094803
v 0.040951 0.023844 0.094803
v 0.040953 0.025445 0.094801
v 0.040953 0.025445 0.094801
v 0.033281 0.023902 0.100125
v 0.033281 0.023902 0.100125
v 0.033283 0.025503 0.100122
v 0.033283 0.025503 0.100122
v 0.044203 0.025448 0.099485
v 0.044203 0.025448 0.099485
v 0.044203 0.025448 0.099485
v 0.044203 0.025448 0.099485
v 0.044201 0.023847 0.099488
v 0.044201 0.023847 0.099488
v 0.044201 0.023847 0.099488
v 0.044201 0.023847 0.099488
v 0.036533 0.025506 0.104807
v 0.036533 0.025506 0.104807
v 0.036533 0.025506 0.104807
v 0.036533 0.025506 0.104807
v 0.036531 0.023905 0.104809
v 0.036531 0.023905 0.104809
v 0.036531 0.023905 0.104809
v 0.036531 0.023905 0.104809
v 0.036531 0.023905 0.104809
v 0.036531 0.023905 0.104809
v 0.044204 0.025388 0.100121
v 0.044204 0.025388 0.100121
v 0.044204 0.025388 0.100121
v 0.044203 0.023912 0.100123
v 0.044203 0.023912 0.100123
v 0.044203 0.023912 0.100123
v 0.044203 0.023912 0.100123
v 0.037128 0.025442 0.105031
v 0.037128 0.025442 0.105031
v 0.037128 0.025442 0.105031
v 0.037128 0.025442 0.105031
v 0.037126 0.023965 0.105033
v 0.037126 0.023965 0.105033
v 0.037126 0.023965 0.105033
vn -0.8216 0.0018 0.5701
vn 0.0048 1 -0.004
vn -0.8216 0.0018 0.5701
vn -0.0048 -1 0.004
vn 0.8216 -0.0018 -0.5701
vn 0.0048 1 -0.004
vn 0.8216 -0.0018 -0.5701
vn -0.0048 -1 0.004
vn -1 0.0012 0.0019
vn -0.0719 -0.9931 -0.0927
vn -0.8216 0.0018 0.5701
vn -0.0048 -1 0.004
vn -0.0623 0.993 -0.1007
vn -0.8216 0.0018 0.5701
vn 0.0048 1 -0.004
vn -1 0.0012 0.0019
vn -0.0048 -1 0.004
vn -0.0719 -0.9931 -0.0927
vn 0.8216 -0.0018 -0.5701
vn 0.3519 -0.0018 -0.936
vn -0.0622 0.993 -0.1006
vn 0.3519 -0.0018 -0.9361
vn -0.0623 0.993 -0.1007
vn 0.3519 -0.0018 -0.936
vn 0.0048 1 -0.004
vn 0.8216 -0.0018 -0.5701
vn -0.5701 -0.0006 -0.8216
vn -0.0719 -0.9931 -0.0927
vn -1 0.0012 0.0019
vn -0.0622 0.993 -0.1006
vn -0.0623 0.993 -0.1007
vn -1 0.0012 0.0019
vn -0.5701 -0.0006 -0.8216
vn 0.3519 -0.0018 -0.9361
vn -0.5701 -0.0006 -0.8216
vn -0.0719 -0.9931 -0.0927
vn 0.3519 -0.0018 -0.936
vn 0.3519 -0.0018 -0.9361
vn -0.0622 0.993 -0.1006
vn -0.5701 -0.0006 -0.8216
vt 0.00000000 0.00000000
vt 0.00000000 0.00000000
vt 0.00000000 0.00000000
vt 0.00000000 0.00000000
vt 0.00000000 0.00000000
vt 0.00000000 0.00000000
vt 0.00000000 0.00000000
vt 0.00000000 0.00000000
vt 0.00000000 0.00000000
vt 0.00000000 0.00000000
vt 0.00000000 0.00000000
vt 0.00000000 0.00000000
vt 0.00000000 0.00000000
vt 0.00000000 0.00000000
vt 0.00000000 0.00000000
vt 0.00000000 0.00000000
vt 0.00000000 0.00000000
vt 0.00000000 0.00000000
vt 0.00000000 0.00000000
vt 0.00000000 0.00000000
vt 0.00000000 0.00000000
vt 0.00000000 0.00000000
vt 0.00000000 0.00000000
vt 0.00000000 0.00000000
vt 0.00000000 0.00000000
vt 0.00000000 0.00000000
vt 0.00000000 0.00000000
vt 0.00000000 0.00000000
vt 0.00000000 0.00000000
vt 0.00000000 0.00000000
vt 0.00000000 0.00000000
vt 0.00000000 0.00000000
vt 0.00000000 0.00000000
vt 0.00000000 0.00000000
vt 0.00000000 0.00000000
vt 0.00000000 0.00000000
vt 0.00000000 0.00000000
vt 0.00000000 0.00000000
vt 0.00000000 0.00000000
vt 0.00000000 0.00000000
f 23/23/23 31/31/31 13/13/13
f 3/3/3 14/14/14 11/11/11
f 2/2/2 25/25/25 15/15/15
f 7/7/7 26/26/26 5/5/5
f 8/8/8 12/12/12 17/17/17
f 40/40/40 27/27/27 33/33/33
f 22/22/22 34/34/34 38/38/38
f 10/10/10 36/36/36 18/18/18
f 9/9/9 32/32/32 29/29/29
f 21/21/21 39/39/39 30/30/30
f 3/3/3 1/1/1 14/14/14
f 2/2/2 6/6/6 25/25/25
f 7/7/7 19/19/19 26/26/26
f 8/8/8 4/4/4 12/12/12
f 40/40/40 35/35/35 27/27/27
f 24/24/24 20/20/20 37/37/37
f 10/10/10 28/28/28 36/36/36
f 9/9/9 16/16/16 32/32/32
