mtllib material_0.mtl
usemtl material_0
v 0.115861 -0.009592 0.126995
v 0.11562 -0.009592 0.127895
v 0.114961 -0.009592 0.128554
v 0.114061 -0.009592 0.128795
v 0.113161 -0.009592 0.128554
v 0.112502 -0.009592 0.127895
v 0.112261 -0.009592 0.126995
v 0.104397 -0.009592 0.036426
v 0.104219 -0.009592 0.037207
v 0.103719 -0.009592 0.037834
v 0.102997 -0.009592 0.038181
v 0.102196 -0.009592 0.038181
v 0.101475 -0.009592 0.037834
v 0.100975 -0.009592 0.037207
v 0.100797 -0.009592 0.036426
v 0.010294 -0.009592 0.079571
v 0.010116 -0.009592 0.080352
v 0.009616 -0.009592 0.080979
v 0.008894 -0.009592 0.081326
v 0.008093 -0.009592 0.081326
v 0.007372 -0.009592 0.080979
v 0.006872 -0.009592 0.080352
v 0.006694 -0.009592 0.079571
v 0.006935 -0.009592 0.078671
v 0.007594 -0.009592 0.078012
v 0.008494 -0.009592 0.077771
v 0.009394 -0.009592 0.078012
v 0.010053 -0.009592 0.078671
v 0.102597 -0.009592 0.034626
v 0.101697 -0.009592 0.034867
v 0.101038 -0.009592 0.035526
v 0.104156 -0.009592 0.035526
v 0.103497 -0.009592 0.034867
v 0.11562 -0.009592 0.126095
v 0.114961 -0.009592 0.125436
v 0.114061 -0.009592 0.125195
v 0.113161 -0.009592 0.125436
v 0.112502 -0.009592 0.126095
v 0.0009 0.057714 -0.067494
v 0 0.057955 -0.067494
v -0.0009 0.057714 -0.067494
v -0.001559 0.057055 -0.067494
v 0.001559 0.055255 -0.067494
v 0.0018 0.056155 -0.067494
v 0.001559 0.057055 -0.067494
v 0.0009 0.054596 -0.067494
v 0 0.054355 -0.067494
v -0.0009 0.054596 -0.067494
v -0.001559 0.055255 -0.067494
v -0.0018 0.056155 -0.067494
v 0.032012 0.015758 0.128471
v 0.031771 0.015758 0.127571
v 0.031112 0.015758 0.126912
v 0.030212 0.015758 0.126671
v 0.029312 0.015758 0.126912
v 0.028654 0.015758 0.127571
v 0.028412 0.015758 0.128471
v 0.028654 0.015758 0.129371
v 0.029312 0.015758 0.13003
v 0.030212 0.015758 0.130271
v 0.031112 0.015758 0.13003
v 0.031771 0.015758 0.129371
v 0.10433 0.015758 0.136119
v 0.104089 0.015758 0.135219
v 0.10343 0.015758 0.13456
v 0.10253 0.015758 0.134319
v 0.10163 0.015758 0.13456
v 0.100971 0.015758 0.135219
v 0.10073 0.015758 0.136119
v 0.100971 0.015758 0.137019
v 0.10163 0.015758 0.137678
v 0.10253 0.015758 0.137919
v 0.10343 0.015758 0.137678
v 0.104089 0.015758 0.137019
v 0.086645 0.015758 0.036806
v 0.086404 0.015758 0.035906
v 0.085745 0.015758 0.035247
v 0.084845 0.015758 0.035006
v 0.083945 0.015758 0.035247
v 0.083287 0.015758 0.035906
v 0.083045 0.015758 0.036806
v 0.083287 0.015758 0.037706
v 0.083945 0.015758 0.038365
v 0.084845 0.015758 0.038606
v 0.085745 0.015758 0.038365
v 0.086404 0.015758 0.037706
v 0.090269 0.015761 0.129482
v 0.090563 0.015761 0.128382
v 0.06935 0.015761 0.107169
v 0.109577 0.015761 0.104969
v 0.108477 0.015761 0.105264
v 0.086163 0.015761 0.128382
v 0.06495 0.015761 0.107169
v 0.065245 0.015761 0.108269
v 0.065245 0.015761 0.106069
v 0.086163 0.015761 0.085956
v 0.086458 0.015761 0.087056
v 0.069055 0.015761 0.106069
v 0.090269 0.015761 0.127282
v 0.107671 0.015761 0.106069
v 0.107377 0.015761 0.107169
v 0.069055 0.015761 0.108269
v 0.111482 0.015761 0.108269
v 0.086458 0.015761 0.127282
v 0.06605 0.015761 0.109074
v 0.087263 0.015761 0.087861
v 0.088363 0.015761 0.088156
v 0.089463 0.015761 0.087861
v 0.090269 0.015761 0.087056
v 0.111777 0.015761 0.107169
v 0.111482 0.015761 0.106069
v 0.110677 0.015761 0.105264
v 0.089463 0.015761 0.08405
v 0.088363 0.015761 0.083756
v 0.06715 0.015761 0.104969
v 0.090269 0.015761 0.084856
v 0.090563 0.015761 0.085956
v 0.107671 0.015761 0.108269
v 0.087263 0.015761 0.126477
v 0.06825 0.015761 0.109074
v 0.06715 0.015761 0.109369
v 0.089463 0.015761 0.130287
v 0.088363 0.015761 0.130582
v 0.087263 0.015761 0.130287
v 0.086458 0.015761 0.129482
v 0.089463 0.015761 0.126477
v 0.088363 0.015761 0.126182
v 0.06825 0.015761 0.105264
v 0.108477 0.015761 0.109074
v 0.109577 0.015761 0.109369
v 0.110677 0.015761 0.109074
v 0.06605 0.015761 0.105264
v 0.086458 0.015761 0.084856
v 0.087263 0.015761 0.08405
v 0.000203 -0.024326 -0.067744
v 0.001103 -0.024567 -0.067744
v 0.001761 -0.025226 -0.067744
v 0.002003 -0.026126 -0.067744
v 0.001761 -0.027026 -0.067744
v 0.001103 -0.027685 -0.067744
v 0.000203 -0.027926 -0.067744
v -0.000697 -0.027685 -0.067744
v -0.001356 -0.027026 -0.067744
v -0.001597 -0.026126 -0.067744
v -0.001356 -0.025226 -0.067744
v -0.000697 -0.024567 -0.067744
v -0.023796 -0.028 0.024601
v -0.023528 -0.028 0.025601
v -0.023528 -0.028 0.023601
v -0.020796 -0.028 0.022869
v -0.021796 -0.028 0.022601
v -0.022796 -0.028 0.022869
v -0.022796 -0.028 0.026333
v -0.020064 -0.028 0.025601
v -0.019796 -0.028 0.024601
v -0.021796 -0.028 0.026601
v -0.020796 -0.028 0.026333
v -0.020064 -0.028 0.023601
v 0.020204 -0.028 0.024601
v 0.020472 -0.028 0.025601
v 0.020472 -0.028 0.023601
v 0.023204 -0.028 0.022869
v 0.022204 -0.028 0.022601
v 0.021204 -0.028 0.022869
v 0.021204 -0.028 0.026333
v 0.023936 -0.028 0.025601
v 0.024204 -0.028 0.024601
v 0.022204 -0.028 0.026601
v 0.023204 -0.028 0.026333
v 0.023936 -0.028 0.023601
vn 0 1 0
vn 0 1 0
vn 0 1 0
vn 0 1 0
vn 0 1 0
vn 0 1 0
vn 0 1 0
vn 0 1 0
vn 0 1 0
vn 0 1 0
vn 0 1 0
vn 0 1 0
vn 0 1 0
vn 0 1 0
vn 0 1 0
vn 0 1 0
vn 0 1 0
vn 0 1 0
vn 0 1 0
vn 0 1 0
vn 0 1 0
vn 0 1 0
vn 0 1 0
vn 0 1 0
vn 0 1 0
vn 0 1 0
vn 0 1 0
vn 0 1 0
vn 0 1 0
vn 0 1 0
vn 0 1 0
vn 0 1 0
vn 0 1 0
vn 0 1 0
vn 0 1 0
vn 0 1 0
vn 0 1 0
vn 0 1 0
vn 0 0 -1
vn 0 0 -1
vn 0 0 -1
vn 0 0 -1
vn 0 0 -1
vn 0 0 -1
vn 0 0 -1
vn 0 0 -1
vn 0 0 -1
vn 0 0 -1
vn 0 0 -1
vn 0 0 -1
vn 0 -1 0
vn 0 -1 0
vn 0 -1 0
vn 0 -1 0
vn 0 -1 0
vn 0 -1 0
vn 0 -1 0
vn 0 -1 0
vn 0 -1 0
vn 0 -1 0
vn 0 -1 0
vn 0 -1 0
vn 0 -1 0
vn 0 -1 0
vn 0 -1 0
vn 0 -1 0
vn 0 -1 0
vn 0 -1 0
vn 0 -1 0
vn 0 -1 0
vn 0 -1 0
vn 0 -1 0
vn 0 -1 0
vn 0 -1 0
vn 0 -1 0
vn 0 -1 0
vn 0 -1 0
vn 0 -1 0
vn 0 -1 0
vn 0 -1 0
vn 0 -1 0
vn 0 -1 0
vn 0 -1 0
vn 0 -1 0
vn 0 -1 0
vn 0 -1 0
vn 0 1 0
vn 0 1 0
vn 0 1 0
vn 0 1 0
vn 0 1 0
vn 0 1 0
vn 0 1 0
vn 0 1 0
vn 0 1 0
vn 0 1 0
vn 0 1 0
vn 0 1 0
vn 0 1 0
vn 0 1 0
vn 0 1 0
vn 0 1 0
vn 0 1 0
vn 0 1 0
vn 0 1 0
vn 0 1 0
vn 0 1 0
vn 0 1 0
vn 0 1 0
vn 0 1 0
vn 0 1 0
vn 0 1 0
vn 0 1 0
vn 0 1 0
vn 0 1 0
vn 0 1 0
vn 0 1 0
vn 0 1 0
vn 0 1 0
vn 0 1 0
vn 0 1 0
vn 0 1 0
vn 0 1 0
vn 0 1 0
vn 0 1 0
vn 0 1 0
vn 0 1 0
vn 0 1 0
vn 0 1 0
vn 0 1 0
vn 0 1 0
vn 0 1 0
vn 0 1 0
vn 0 1 0
vn 0 0 1
vn 0 0 1
vn 0 0 1
vn 0 0 1
vn 0 0 1
vn 0 0 1
vn 0 0 1
vn 0 0 1
vn 0 0 1
vn 0 0 1
vn 0 0 1
vn 0 0 1
vn 0 -1 0
vn 0 -1 0
vn 0 -1 0
vn 0 -1 0
vn 0 -1 0
vn 0 -1 0
vn 0 -1 0
vn 0 -1 0
vn 0 -1 0
vn 0 -1 0
vn 0 -1 0
vn 0 -1 0
vn 0 -1 0
vn 0 -1 0
vn 0 -1 0
vn 0 -1 0
vn 0 -1 0
vn 0 -1 0
vn 0 -1 0
vn 0 -1 0
vn 0 -1 0
vn 0 -1 0
vn 0 -1 0
vn 0 -1 0
vt 0.00000000 0.00000000
vt 0.00000000 0.00000000
vt 0.00000000 0.00000000
vt 0.00000000 0.00000000
vt 0.00000000 0.00000000
vt 0.00000000 0.00000000
vt 0.00000000 0.00000000
vt 0.00000000 0.00000000
vt 0.00000000 0.00000000
vt 0.00000000 0.00000000
vt 0.00000000 0.00000000
vt 0.00000000 0.00000000
vt 0.00000000 0.00000000
vt 0.00000000 0.00000000
vt 0.00000000 0.00000000
vt 0.00000000 0.00000000
vt 0.00000000 0.00000000
vt 0.00000000 0.00000000
vt 0.00000000 0.00000000
vt 0.00000000 0.00000000
vt 0.00000000 0.00000000
vt 0.00000000 0.00000000
vt 0.00000000 0.00000000
vt 0.00000000 0.00000000
vt 0.00000000 0.00000000
vt 0.00000000 0.00000000
vt 0.00000000 0.00000000
vt 0.00000000 0.00000000
vt 0.00000000 0.00000000
vt 0.00000000 0.00000000
vt 0.00000000 0.00000000
vt 0.00000000 0.00000000
vt 0.00000000 0.00000000
vt 0.00000000 0.00000000
vt 0.00000000 0.00000000
vt 0.00000000 0.00000000
vt 0.00000000 0.00000000
vt 0.00000000 0.00000000
vt 0.00000000 0.00000000
vt 0.00000000 0.00000000
vt 0.00000000 0.00000000
vt 0.00000000 0.00000000
vt 0.00000000 0.00000000
vt 0.00000000 0.00000000
vt 0.00000000 0.00000000
vt 0.00000000 0.00000000
vt 0.00000000 0.00000000
vt 0.00000000 0.00000000
vt 0.00000000 0.00000000
vt 0.00000000 0.00000000
vt 0.00000000 0.00000000
vt 0.00000000 0.00000000
vt 0.00000000 0.00000000
vt 0.00000000 0.00000000
vt 0.00000000 0.00000000
vt 0.00000000 0.00000000
vt 0.00000000 0.00000000
vt 0.00000000 0.00000000
vt 0.00000000 0.00000000
vt 0.00000000 0.00000000
vt 0.00000000 0.00000000
vt 0.00000000 0.00000000
vt 0.00000000 0.00000000
vt 0.00000000 0.00000000
vt 0.00000000 0.00000000
vt 0.00000000 0.00000000
vt 0.00000000 0.00000000
vt 0.00000000 0.00000000
vt 0.00000000 0.00000000
vt 0.00000000 0.00000000
vt 0.00000000 0.00000000
vt 0.00000000 0.00000000
vt 0.00000000 0.00000000
vt 0.00000000 0.00000000
vt 0.00000000 0.00000000
vt 0.00000000 0.00000000
vt 0.00000000 0.00000000
vt 0.00000000 0.00000000
vt 0.00000000 0.00000000
vt 0.00000000 0.00000000
vt 0.00000000 0.00000000
vt 0.00000000 0.00000000
vt 0.00000000 0.00000000
vt 0.00000000 0.00000000
vt 0.00000000 0.00000000
vt 0.00000000 0.00000000
vt 0.00000000 0.00000000
vt 0.00000000 0.00000000
vt 0.00000000 0.00000000
vt 0.00000000 0.00000000
vt 0.00000000 0.00000000
vt 0.00000000 0.00000000
vt 0.00000000 0.00000000
vt 0.00000000 0.00000000
vt 0.00000000 0.00000000
vt 0.00000000 0.00000000
vt 0.00000000 0.00000000
vt 0.00000000 0.00000000
vt 0.00000000 0.00000000
vt 0.00000000 0.00000000
vt 0.00000000 0.00000000
vt 0.00000000 0.00000000
vt 0.00000000 0.00000000
vt 0.00000000 0.00000000
vt 0.00000000 0.00000000
vt 0.00000000 0.00000000
vt 0.00000000 0.00000000
vt 0.00000000 0.00000000
vt 0.00000000 0.00000000
vt 0.00000000 0.00000000
vt 0.00000000 0.00000000
vt 0.00000000 0.00000000
vt 0.00000000 0.00000000
vt 0.00000000 0.00000000
vt 0.00000000 0.00000000
vt 0.00000000 0.00000000
vt 0.00000000 0.00000000
vt 0.00000000 0.00000000
vt 0.00000000 0.00000000
vt 0.00000000 0.00000000
vt 0.00000000 0.00000000
vt 0.00000000 0.00000000
vt 0.00000000 0.00000000
vt 0.00000000 0.00000000
vt 0.00000000 0.00000000
vt 0.00000000 0.00000000
vt 0.00000000 0.00000000
vt 0.00000000 0.00000000
vt 0.00000000 0.00000000
vt 0.00000000 0.00000000
vt 0.00000000 0.00000000
vt 0.00000000 0.00000000
vt 0.00000000 0.00000000
vt 0.00000000 0.00000000
vt 0.00000000 0.00000000
vt 0.00000000 0.00000000
vt 0.00000000 0.00000000
vt 0.00000000 0.00000000
vt 0.00000000 0.00000000
vt 0.00000000 0.00000000
vt 0.00000000 0.00000000
vt 0.00000000 0.00000000
vt 0.00000000 0.00000000
vt 0.00000000 0.00000000
vt 0.00000000 0.00000000
vt 0.00000000 0.00000000
vt 0.00000000 0.00000000
vt 0.00000000 0.00000000
vt 0.00000000 0.00000000
vt 0.00000000 0.00000000
vt 0.00000000 0.00000000
vt 0.00000000 0.00000000
vt 0.00000000 0.00000000
vt 0.00000000 0.00000000
vt 0.00000000 0.00000000
vt 0.00000000 0.00000000
vt 0.00000000 0.00000000
vt 0.00000000 0.00000000
vt 0.00000000 0.00000000
vt 0.00000000 0.00000000
vt 0.00000000 0.00000000
vt 0.00000000 0.00000000
vt 0.00000000 0.00000000
vt 0.00000000 0.00000000
vt 0.00000000 0.00000000
vt 0.00000000 0.00000000
vt 0.00000000 0.00000000
vt 0.00000000 0.00000000
vt 0.00000000 0.00000000
vt 0.00000000 0.00000000
f 163/163/163 170/170/170 168/168/168
f 151/151/151 158/158/158 156/156/156
f 142/142/142 140/140/140 136/136/136
f 16/16/16 27/27/27 22/22/22
f 30/30/30 15/15/15 12/12/12
f 3/3/3 35/35/35 7/7/7
f 105/105/105 89/89/89 132/132/132
f 124/124/124 122/122/122 126/126/126
f 91/91/91 129/129/129 110/110/110
f 116/116/116 114/114/114 97/97/97
f 72/72/72 70/70/70 66/66/66
f 78/78/78 86/86/86 82/82/82
f 58/58/58 56/56/56 54/54/54
f 48/48/48 50/50/50 39/39/39
f 161/161/161 164/164/164 163/163/163
f 163/163/163 162/162/162 170/170/170
f 170/170/170 167/167/167 168/168/168
f 167/167/167 166/166/166 168/168/168
f 166/166/166 169/169/169 168/168/168
f 168/168/168 165/165/165 160/160/160
f 160/160/160 159/159/159 168/168/168
f 159/159/159 161/161/161 168/168/168
f 161/161/161 163/163/163 168/168/168
f 149/149/149 152/152/152 151/151/151
f 151/151/151 150/150/150 158/158/158
f 158/158/158 155/155/155 156/156/156
f 155/155/155 154/154/154 156/156/156
f 154/154/154 157/157/157 156/156/156
f 156/156/156 153/153/153 148/148/148
f 148/148/148 147/147/147 156/156/156
f 147/147/147 149/149/149 156/156/156
f 149/149/149 151/151/151 156/156/156
f 140/140/140 139/139/139 138/138/138
f 138/138/138 137/137/137 140/140/140
f 137/137/137 136/136/136 140/140/140
f 136/136/136 135/135/135 144/144/144
f 135/135/135 146/146/146 144/144/144
f 146/146/146 145/145/145 144/144/144
f 144/144/144 143/143/143 142/142/142
f 142/142/142 141/141/141 140/140/140
f 144/144/144 142/142/142 136/136/136
f 24/24/24 23/23/23 22/22/22
f 22/22/22 21/21/21 18/18/18
f 21/21/21 20/20/20 18/18/18
f 20/20/20 19/19/19 18/18/18
f 18/18/18 17/17/17 16/16/16
f 16/16/16 28/28/28 27/27/27
f 27/27/27 26/26/26 25/25/25
f 25/25/25 24/24/24 27/27/27
f 24/24/24 22/22/22 27/27/27
f 18/18/18 16/16/16 22/22/22
f 14/14/14 13/13/13 15/15/15
f 13/13/13 12/12/12 15/15/15
f 12/12/12 11/11/11 10/10/10
f 10/10/10 9/9/9 8/8/8
f 8/8/8 32/32/32 33/33/33
f 33/33/33 29/29/29 8/8/8
f 29/29/29 30/30/30 8/8/8
f 30/30/30 31/31/31 15/15/15
f 12/12/12 10/10/10 30/30/30
f 10/10/10 8/8/8 30/30/30
f 7/7/7 6/6/6 3/3/3
f 6/6/6 5/5/5 3/3/3
f 5/5/5 4/4/4 3/3/3
f 3/3/3 2/2/2 1/1/1
f 1/1/1 34/34/34 3/3/3
f 34/34/34 35/35/35 3/3/3
f 35/35/35 36/36/36 37/37/37
f 37/37/37 38/38/38 35/35/35
f 38/38/38 7/7/7 35/35/35
f 132/132/132 95/95/95 93/93/93
f 93/93/93 94/94/94 132/132/132
f 94/94/94 105/105/105 132/132/132
f 105/105/105 121/121/121 120/120/120
f 120/120/120 102/102/102 89/89/89
f 89/89/89 98/98/98 128/128/128
f 128/128/128 115/115/115 132/132/132
f 105/105/105 120/120/120 89/89/89
f 89/89/89 128/128/128 132/132/132
f 126/126/126 127/127/127 119/119/119
f 119/119/119 104/104/104 126/126/126
f 104/104/104 92/92/92 126/126/126
f 92/92/92 125/125/125 124/124/124
f 124/124/124 123/123/123 122/122/122
f 122/122/122 87/87/87 88/88/88
f 88/88/88 99/99/99 122/122/122
f 99/99/99 126/126/126 122/122/122
f 92/92/92 124/124/124 126/126/126
f 110/110/110 111/111/111 91/91/91
f 111/111/111 112/112/112 91/91/91
f 112/112/112 90/90/90 91/91/91
f 91/91/91 100/100/100 101/101/101
f 101/101/101 118/118/118 91/91/91
f 118/118/118 129/129/129 91/91/91
f 129/129/129 130/130/130 131/131/131
f 131/131/131 103/103/103 129/129/129
f 103/103/103 110/110/110 129/129/129
f 109/109/109 117/117/117 116/116/116
f 116/116/116 113/113/113 114/114/114
f 114/114/114 134/134/134 97/97/97
f 134/134/134 133/133/133 97/97/97
f 133/133/133 96/96/96 97/97/97
f 97/97/97 106/106/106 109/109/109
f 106/106/106 107/107/107 109/109/109
f 107/107/107 108/108/108 109/109/109
f 109/109/109 116/116/116 97/97/97
f 66/66/66 65/65/65 74/74/74
f 65/65/65 64/64/64 74/74/74
f 64/64/64 63/63/63 74/74/74
f 74/74/74 73/73/73 72/72/72
f 72/72/72 71/71/71 70/70/70
f 70/70/70 69/69/69 68/68/68
f 68/68/68 67/67/67 70/70/70
f 67/67/67 66/66/66 70/70/70
f 74/74/74 72/72/72 66/66/66
f 82/82/82 81/81/81 80/80/80
f 80/80/80 79/79/79 82/82/82
f 79/79/79 78/78/78 82/82/82
f 78/78/78 77/77/77 76/76/76
f 76/76/76 75/75/75 86/86/86
f 86/86/86 85/85/85 84/84/84
f 84/84/84 83/83/83 86/86/86
f 83/83/83 82/82/82 86/86/86
f 78/78/78 76/76/76 86/86/86
f 54/54/54 53/53/53 52/52/52
f 52/52/52 51/51/51 62/62/62
f 62/62/62 61/61/61 60/60/60
f 60/60/60 59/59/59 58/58/58
f 58/58/58 57/57/57 56/56/56
f 56/56/56 55/55/55 54/54/54
f 54/54/54 52/52/52 62/62/62
f 62/62/62 60/60/60 54/54/54
f 60/60/60 58/58/58 54/54/54
f 50/50/50 42/42/42 41/41/41
f 41/41/41 40/40/40 39/39/39
f 39/39/39 45/45/45 44/44/44
f 44/44/44 43/43/43 39/39/39
f 43/43/43 46/46/46 39/39/39
f 46/46/46 47/47/47 48/48/48
f 48/48/48 49/49/49 50/50/50
f 50/50/50 41/41/41 39/39/39
f 46/46/46 48/48/48 39/39/39
