mtllib material_0.mtl
usemtl material_0
v 0.1760256 -0.0065 -0.019319
v 0.1760256 -0.0065 -0.019319
v 0.1760256 -0.0065 -0.019319
v 0.1760256 -0.0065 -0.019319
v 0.1760256 -0.0065 -0.019319
v 0.1760256 -0.0065 -0.019319
v 0.1763433 -0.0065 -0.018789
v 0.1763433 -0.0065 -0.018789
v 0.1763433 -0.0065 -0.018789
v 0.1763433 -0.0065 -0.018789
v 0.1637685 -0.0065 -0.010259
v 0.1637685 -0.0065 -0.010259
v 0.1639791 -0.0065 -0.00965
v 0.1639791 -0.0065 -0.00965
v 0.1639791 -0.0065 -0.00965
v -5.67E-05 -0.0065 0.000597
v -5.67E-05 -0.0065 0.000597
v -5.67E-05 -0.0065 0.000597
v 0 -0.0065 0
v 0 -0.0065 0
v 0 -0.0065 0
v 0.007029 -0.0065 0.001429
v 0.007029 -0.0065 0.001429
v 0.007029 -0.0065 0.001429
v 0.007029 -0.0065 0.001429
v 0.0069219 -0.0065 0.000813
v 0.0069219 -0.0065 0.000813
v 0.0069219 -0.0065 0.000813
v 0.0069219 -0.0065 0.000813
v 0 0.0065 0
v 0 0.0065 0
v 0 0.0065 0
v -5.67E-05 0.0065 0.000597
v -5.67E-05 0.0065 0.000597
v -5.67E-05 0.0065 0.000597
v 0.0069219 0.0065 0.000813
v 0.0069219 0.0065 0.000813
v 0.0069219 0.0065 0.000813
v 0.0069219 0.0065 0.000813
v 0.007029 0.0065 0.001429
v 0.007029 0.0065 0.001429
v 0.007029 0.0065 0.001429
v 0.007029 0.0065 0.001429
v 0.1763433 0.0065 -0.018789
v 0.1763433 0.0065 -0.018789
v 0.1763433 0.0065 -0.018789
v 0.1763433 0.0065 -0.018789
v 0.1760256 0.0065 -0.019319
v 0.1760256 0.0065 -0.019319
v 0.1760256 0.0065 -0.019319
v 0.1760256 0.0065 -0.019319
v 0.1639791 0.0065 -0.00965
v 0.1639791 0.0065 -0.00965
v 0.1639791 0.0065 -0.00965
v 0.1639791 0.0065 -0.00965
v 0.1637685 0.0065 -0.010259
v 0.1637685 0.0065 -0.010259
v 0.1637685 0.0065 -0.010259
v 0 -0.00225 0
v 0 -0.00225 0
v 0 -0.00225 0
v 0 0.00225 0
v 0 0.00225 0
v 0 0.00225 0
v 0.0010071 0.001949 0.000118
v 0.0010071 0.001949 0.000118
v 0.0010071 0.001949 0.000118
v 0.0010071 0.001949 0.000118
v 0.0017442 0.001125 0.000205
v 0.0017442 0.001125 0.000205
v 0.0017442 0.001125 0.000205
v 0.0017442 0.001125 0.000205
v 0.0010071 -0.001949 0.000118
v 0.0010071 -0.001949 0.000118
v 0.0010071 -0.001949 0.000118
v 0.0017442 -0.001125 0.000205
v 0.0017442 -0.001125 0.000205
v 0.0017442 -0.001125 0.000205
v 0.0017442 -0.001125 0.000205
v 0.0020133 0 0.000237
v 0.0020133 0 0.000237
v 0.0020133 0 0.000237
v 0.0020133 0 0.000237
v -5.67E-05 0.00225 0.000597
v -5.67E-05 0.00225 0.000597
v -5.67E-05 0.00225 0.000597
v 0.0009504 0.001949 0.000715
v 0.0009504 0.001949 0.000715
v 0.0009504 0.001949 0.000715
v -5.67E-05 -0.00225 0.000597
v -5.67E-05 -0.00225 0.000597
v -5.67E-05 -0.00225 0.000597
v 0.0009504 -0.001949 0.000715
v 0.0009504 -0.001949 0.000715
v 0.0009504 -0.001949 0.000715
v 0.0009504 -0.001949 0.000715
v 0.0016875 0.001125 0.000802
v 0.0016875 0.001125 0.000802
v 0.0016875 0.001125 0.000802
v 0.0016875 0.001125 0.000802
v 0.0019566 0 0.000833
v 0.0019566 0 0.000833
v 0.0019566 0 0.000833
v 0.0019566 0 0.000833
v 0.0016875 -0.001125 0.000802
v 0.0016875 -0.001125 0.000802
v 0.0016875 -0.001125 0.000802
v 0.0016875 -0.001125 0.000802
v 0.1700955 0.002056 -0.014936
v 0.1700955 0.002056 -0.014936
v 0.1700955 0.002056 -0.014936
v 0.1700955 0.002056 -0.014936
v 0.1709577 0.002237 -0.015573
v 0.1709577 0.002237 -0.015573
v 0.1709577 0.002237 -0.015573
v 0.1709577 0.002237 -0.015573
v 0.1717722 0.001819 -0.016175
v 0.1717722 0.001819 -0.016175
v 0.1717722 0.001819 -0.016175
v 0.1714653 -0.002056 -0.015948
v 0.1714653 -0.002056 -0.015948
v 0.1714653 -0.002056 -0.015948
v 0.1714653 -0.002056 -0.015948
v 0.1714653 -0.002056 -0.015948
v 0.1706031 -0.002237 -0.015311
v 0.1706031 -0.002237 -0.015311
v 0.1706031 -0.002237 -0.015311
v 0.1706031 -0.002237 -0.015311
v 0.1706031 -0.002237 -0.015311
v 0.1697886 -0.001819 -0.014709
v 0.1697886 -0.001819 -0.014709
v 0.1697886 -0.001819 -0.014709
v 0.1721439 -0.001324 -0.01645
v 0.1721439 -0.001324 -0.01645
v 0.1721439 -0.001324 -0.01645
v 0.1721439 -0.001324 -0.01645
v 0.1724571 -0.000237 -0.016681
v 0.1724571 -0.000237 -0.016681
v 0.1724571 -0.000237 -0.016681
v 0.1724571 -0.000237 -0.016681
v 0.1724571 -0.000237 -0.016681
v 0.1723212 0.000914 -0.016581
v 0.1723212 0.000914 -0.016581
v 0.1723212 0.000914 -0.016581
v 0.1723212 0.000914 -0.016581
v 0.1694169 0.001324 -0.014434
v 0.1694169 0.001324 -0.014434
v 0.1694169 0.001324 -0.014434
v 0.1694169 0.001324 -0.014434
v 0.1694169 0.001324 -0.014434
v 0.1691037 0.000237 -0.014203
v 0.1691037 0.000237 -0.014203
v 0.1691037 0.000237 -0.014203
v 0.1691037 0.000237 -0.014203
v 0.1692396 -0.000914 -0.014303
v 0.1692396 -0.000914 -0.014303
v 0.1692396 -0.000914 -0.014303
v 0.1692396 -0.000914 -0.014303
v 0.1720899 0.001819 -0.015645
v 0.1720899 0.001819 -0.015645
v 0.1720899 0.001819 -0.015645
v 0.1720899 0.001819 -0.015645
v 0.1726389 0.000914 -0.016051
v 0.1726389 0.000914 -0.016051
v 0.1726389 0.000914 -0.016051
v 0.1726389 0.000914 -0.016051
v 0.1727748 -0.000237 -0.016151
v 0.1727748 -0.000237 -0.016151
v 0.1727748 -0.000237 -0.016151
v 0.1727748 -0.000237 -0.016151
v 0.1724616 -0.001324 -0.01592
v 0.1724616 -0.001324 -0.01592
v 0.1724616 -0.001324 -0.01592
v 0.1717821 -0.002056 -0.015418
v 0.1717821 -0.002056 -0.015418
v 0.1717821 -0.002056 -0.015418
v 0.1709208 -0.002237 -0.014781
v 0.1709208 -0.002237 -0.014781
v 0.1709208 -0.002237 -0.014781
v 0.1709208 -0.002237 -0.014781
v 0.1709208 -0.002237 -0.014781
v 0.1694214 0.000237 -0.013673
v 0.1694214 0.000237 -0.013673
v 0.1694214 0.000237 -0.013673
v 0.1694214 0.000237 -0.013673
v 0.1694214 0.000237 -0.013673
v 0.1695573 -0.000914 -0.013773
v 0.1695573 -0.000914 -0.013773
v 0.1695573 -0.000914 -0.013773
v 0.1695573 -0.000914 -0.013773
v 0.1701063 -0.001819 -0.014179
v 0.1701063 -0.001819 -0.014179
v 0.1701063 -0.001819 -0.014179
v 0.1701063 -0.001819 -0.014179
v 0.1701063 -0.001819 -0.014179
v 0.1697346 0.001324 -0.013904
v 0.1697346 0.001324 -0.013904
v 0.1697346 0.001324 -0.013904
v 0.1697346 0.001324 -0.013904
v 0.1697346 0.001324 -0.013904
v 0.1704132 0.002056 -0.014406
v 0.1704132 0.002056 -0.014406
v 0.1704132 0.002056 -0.014406
v 0.1704132 0.002056 -0.014406
v 0.1704132 0.002056 -0.014406
v 0.1712754 0.002237 -0.015043
v 0.1712754 0.002237 -0.015043
v 0.1712754 0.002237 -0.015043
v 0.1712754 0.002237 -0.015043
v 0.163161 -0.0065 -0.009217
v 0.163161 -0.0065 -0.009217
v 0.163161 -0.0065 -0.009217
v 0.163161 0.0065 -0.009217
v 0.163161 0.0065 -0.009217
v 0.163161 0.0065 -0.009217
v 0.0383247 -0.0065 0.002287
v 0.0383247 -0.0065 0.002287
v 0.0383247 -0.0065 0.002287
v 0.0382185 -0.0065 0.001671
v 0.0382185 -0.0065 0.001671
v 0.0382185 -0.0065 0.001671
v 0.0382185 0.0065 0.001671
v 0.0382185 0.0065 0.001671
v 0.0382185 0.0065 0.001671
v 0.0383247 0.0065 0.002287
v 0.0383247 0.0065 0.002287
v 0.0383247 0.0065 0.002287
v 0.0701829 -0.0065 0.001663
v 0.0701829 -0.0065 0.001663
v 0.0701829 -0.0065 0.001663
v 0.0700758 -0.0065 0.001047
v 0.0700758 -0.0065 0.001047
v 0.0700758 -0.0065 0.001047
v 0.0700758 0.0065 0.001047
v 0.0700758 0.0065 0.001047
v 0.0700758 0.0065 0.001047
v 0.0701829 0.0065 0.001663
v 0.0701829 0.0065 0.001663
v 0.0701829 0.0065 0.001663
v 0.1015488 -0.0065 -0.000442
v 0.1015488 -0.0065 -0.000442
v 0.1015488 -0.0065 -0.000442
v 0.1014417 -0.0065 -0.001058
v 0.1014417 -0.0065 -0.001058
v 0.1014417 -0.0065 -0.001058
v 0.1014417 0.0065 -0.001058
v 0.1014417 0.0065 -0.001058
v 0.1014417 0.0065 -0.001058
v 0.1015488 0.0065 -0.000442
v 0.1015488 0.0065 -0.000442
v 0.1015488 0.0065 -0.000442
v 0.1328445 -0.0065 -0.004262
v 0.1328445 -0.0065 -0.004262
v 0.1328445 -0.0065 -0.004262
v 0.1327383 -0.0065 -0.004878
v 0.1327383 -0.0065 -0.004878
v 0.1327383 -0.0065 -0.004878
v 0.1327383 0.0065 -0.004878
v 0.1327383 0.0065 -0.004878
v 0.1327383 0.0065 -0.004878
v 0.1328445 0.0065 -0.004262
v 0.1328445 0.0065 -0.004262
v 0.1328445 0.0065 -0.004262
v 0.1607724 -0.0065 -0.009018
v 0.1607724 -0.0065 -0.009018
v 0.1607724 -0.0065 -0.009018
v 0.1606662 -0.0065 -0.009634
v 0.1606662 -0.0065 -0.009634
v 0.1606662 -0.0065 -0.009634
v 0.1606662 0.0065 -0.009634
v 0.1606662 0.0065 -0.009634
v 0.1606662 0.0065 -0.009634
v 0.1607724 0.0065 -0.009018
v 0.1607724 0.0065 -0.009018
v 0.1607724 0.0065 -0.009018
vn 0 -1 0
vn 0.8326 0 -0.5539
vn -0.554 -0.0001 -0.8325
vn -0.5539 0.0001 -0.8326
vn -0.5539 -0.0001 -0.8326
vn -0.5539 0 -0.8326
vn 0 -1 0
vn 0.8326 0 -0.5539
vn 0.554 0.0001 0.8325
vn 0.5539 0 0.8326
vn -0.5539 0 -0.8326
vn 0 -1 0
vn 0.5539 0 0.8326
vn 0.5539 0.0001 0.8326
vn 0 -1 0
vn 0 -1 0
vn -0.1052 0 0.9945
vn -0.9945 0 -0.1052
vn 0 -1 0
vn -0.9945 0 -0.1052
vn 0.1052 0 -0.9945
vn 0 -1 0
vn 0.0247 0 -0.9997
vn -0.1052 0 0.9945
vn 0 1 0
vn 0 -1 0
vn 0.1052 0 -0.9945
vn -0.0247 0 0.9997
vn 0 1 0
vn 0.1052 0 -0.9945
vn -0.9945 0 -0.1052
vn 0 1 0
vn -0.1052 0 0.9945
vn 0 1 0
vn -0.9945 0 -0.1052
vn 0 -1 0
vn -0.0247 0 0.9997
vn 0.1052 0 -0.9945
vn 0 1 0
vn 0 -1 0
vn -0.1052 0 0.9945
vn 0 1 0
vn 0.0247 0 -0.9997
vn 0 1 0
vn 0.5539 0.0001 0.8326
vn 0.8326 0 -0.5539
vn 0.5539 0 0.8326
vn -0.554 0.0001 -0.8325
vn -0.5539 0 -0.8326
vn 0.8326 0 -0.5539
vn 0 1 0
vn 0 1 0
vn 0.5539 0 0.8326
vn 0.5539 0.0001 0.8326
vn 0.5538 -0.0001 0.8326
vn -0.5539 0 -0.8326
vn -0.5539 -0.0001 -0.8326
vn 0 1 0
vn -0.9945 0 -0.1052
vn 0.1052 0 -0.9945
vn -0.2574 0.9659 -0.0272
vn -0.9945 0 -0.1052
vn -0.2574 -0.9659 -0.0272
vn 0.1052 0 -0.9945
vn -0.2574 -0.9659 -0.0272
vn 0.1052 0 -0.9945
vn -0.7032 -0.7071 -0.0743
vn -0.7031 -0.7071 -0.0745
vn -0.7031 -0.7071 -0.0745
vn 0.1052 0 -0.9945
vn -0.9605 -0.2589 -0.1017
vn -0.9606 -0.2588 -0.1015
vn 0.1052 0 -0.9945
vn -0.2574 0.9659 -0.0272
vn -0.7031 0.7071 -0.0743
vn 0.1052 0 -0.9945
vn -0.7032 0.7071 -0.0745
vn -0.9606 0.2588 -0.1017
vn -0.7031 0.7071 -0.0743
vn 0.1052 0 -0.9945
vn -0.9606 0.2589 -0.1015
vn -0.9606 0.2588 -0.1017
vn -0.9606 -0.2588 -0.1015
vn -0.9945 0 -0.1052
vn -0.1052 0 0.9945
vn -0.2574 -0.9659 -0.0272
vn -0.1052 0 0.9945
vn -0.2574 -0.9659 -0.0272
vn -0.7032 -0.7071 -0.0743
vn -0.9945 0 -0.1052
vn -0.2574 0.9659 -0.0272
vn -0.1052 0 0.9945
vn -0.1052 0 0.9945
vn -0.7032 0.7071 -0.0745
vn -0.7031 0.7071 -0.0743
vn -0.2574 0.9659 -0.0272
vn -0.7031 -0.7071 -0.0745
vn -0.1052 0 0.9945
vn -0.9605 -0.2589 -0.1017
vn -0.7032 -0.7071 -0.0743
vn -0.9606 -0.2588 -0.1015
vn -0.1052 0 0.9945
vn -0.9605 -0.2589 -0.1017
vn -0.9606 0.2589 -0.1015
vn -0.1052 0 0.9945
vn -0.7032 0.7071 -0.0745
vn -0.9606 0.2588 -0.1017
vn -0.9606 0.2589 -0.1015
vn 0.5236 -0.7776 -0.3482
vn -0.5539 0 -0.8326
vn 0.1297 -0.9878 -0.0862
vn -0.5539 -0.0001 -0.8326
vn 0.1297 -0.9878 -0.0862
vn -0.5539 0 -0.8326
vn -0.2989 -0.9333 0.1989
vn -0.2989 -0.9333 0.1988
vn -0.6473 -0.6288 0.4307
vn -0.2989 -0.9333 0.1989
vn -0.5539 0 -0.8326
vn -0.5539 0.0001 -0.8326
vn -0.5235 0.7776 0.3483
vn -0.5539 -0.0001 -0.8326
vn -0.1297 0.9878 0.0862
vn -0.1296 0.9878 0.0863
vn 0.2989 0.9333 -0.1989
vn -0.5539 -0.0001 -0.8326
vn -0.5539 0 -0.8326
vn -0.1297 0.9878 0.0862
vn 0.299 0.9333 -0.1989
vn 0.2989 0.9333 -0.1989
vn -0.5539 0 -0.8326
vn 0.6474 0.6288 -0.4307
vn -0.5235 0.7776 0.3483
vn -0.5539 0.0001 -0.8326
vn -0.554 -0.0001 -0.8325
vn -0.7771 0.359 0.517
vn -0.7771 0.359 0.517
vn -0.5539 0 -0.8326
vn -0.554 0.0001 -0.8325
vn -0.8224 -0.1557 0.5472
vn -0.554 -0.0001 -0.8325
vn -0.6473 -0.6288 0.4307
vn -0.5539 0 -0.8326
vn -0.8224 -0.1557 0.5472
vn -0.554 0.0001 -0.8325
vn -0.5539 0 -0.8326
vn 0.7771 -0.359 -0.517
vn 0.5235 -0.7776 -0.3483
vn 0.5236 -0.7776 -0.3482
vn -0.5539 -0.0001 -0.8326
vn 0.7771 -0.359 -0.5169
vn 0.8224 0.1557 -0.5471
vn 0.7771 -0.359 -0.517
vn -0.5539 0 -0.8326
vn 0.8224 0.1557 -0.5471
vn 0.8224 0.1558 -0.5471
vn 0.6474 0.6288 -0.4307
vn -0.5539 0 -0.8326
vn -0.2989 -0.9333 0.1988
vn -0.2989 -0.9333 0.1989
vn -0.6473 -0.6288 0.4307
vn 0.5539 0 0.8326
vn -0.8224 -0.1557 0.5472
vn 0.554 0.0001 0.8325
vn -0.6473 -0.6288 0.4307
vn 0.5539 0 0.8326
vn 0.554 0.0001 0.8325
vn -0.8224 -0.1557 0.5472
vn 0.5539 0 0.8326
vn -0.7771 0.359 0.517
vn -0.5235 0.7776 0.3483
vn 0.5539 0 0.8326
vn -0.7771 0.359 0.517
vn -0.5235 0.7776 0.3483
vn 0.5539 0 0.8326
vn -0.1296 0.9878 0.0863
vn -0.1297 0.9878 0.0862
vn 0.299 0.9333 -0.1989
vn 0.5539 0 0.8326
vn 0.5539 0.0001 0.8326
vn -0.1296 0.9878 0.0863
vn 0.8224 0.1558 -0.5471
vn 0.8224 0.1557 -0.5471
vn 0.5538 -0.0001 0.8326
vn 0.5539 0.0001 0.8326
vn 0.7771 -0.359 -0.5169
vn 0.5538 -0.0001 0.8326
vn 0.5539 0 0.8326
vn 0.8224 0.1558 -0.5471
vn 0.6474 0.6288 -0.4307
vn 0.5539 0 0.8326
vn 0.2989 0.9333 -0.1989
vn 0.5539 0.0001 0.8326
vn 0.299 0.9333 -0.1989
vn 0.6474 0.6288 -0.4307
vn 0.5539 0 0.8326
vn 0.7771 -0.359 -0.517
vn 0.5235 -0.7776 -0.3483
vn 0.7771 -0.359 -0.5169
vn 0.5539 0.0001 0.8326
vn 0.5235 -0.7776 -0.3483
vn 0.5236 -0.7776 -0.3482
vn 0.1297 -0.9878 -0.0862
vn 0.5539 0 0.8326
vn 0.5539 0.0001 0.8326
vn 0.5539 0 0.8326
vn -0.2989 -0.9333 0.1988
vn 0.1297 -0.9878 -0.0862
vn 0.5539 0.0001 0.8326
vn 0 1 0
vn -0.1489 0 0.9889
vn -0.0746 0 -0.9972
vn -0.1489 0 0.9889
vn -0.0746 0 -0.9972
vn 0 -1 0
vn 0.0247 0 -0.9997
vn 0 1 0
vn -0.0176 0 -0.9998
vn -0.0247 0 0.9997
vn 0 1 0
vn 0.0176 0 0.9998
vn 0.0176 0 0.9998
vn -0.0247 0 0.9997
vn 0 -1 0
vn -0.0176 0 -0.9998
vn 0.0247 0 -0.9997
vn 0 -1 0
vn -0.0603 0 -0.9982
vn -0.0176 0 -0.9998
vn 0 1 0
vn 0 1 0
vn 0.0603 0 0.9982
vn 0.0176 0 0.9998
vn 0 -1 0
vn 0.0176 0 0.9998
vn 0.0603 0 0.9982
vn -0.0176 0 -0.9998
vn -0.0603 0 -0.9982
vn 0 -1 0
vn 0 1 0
vn -0.1092 0 -0.994
vn -0.0603 0 -0.9982
vn 0.1092 0 0.994
vn 0 1 0
vn 0.0603 0 0.9982
vn 0.0603 0 0.9982
vn 0 -1 0
vn 0.1092 0 0.994
vn -0.1092 0 -0.994
vn -0.0603 0 -0.9982
vn 0 -1 0
vn 0 1 0
vn -0.1092 0 -0.994
vn -0.1515 0 -0.9885
vn 0 1 0
vn 0.1515 0 0.9885
vn 0.1092 0 0.994
vn 0.1092 0 0.994
vn 0 -1 0
vn 0.1515 0 0.9885
vn 0 -1 0
vn -0.1092 0 -0.994
vn -0.1515 0 -0.9885
vn -0.1515 0 -0.9885
vn -0.0746 0 -0.9972
vn 0 1 0
vn -0.1489 0 0.9889
vn 0 1 0
vn 0.1515 0 0.9885
vn -0.1489 0 0.9889
vn 0 -1 0
vn 0.1515 0 0.9885
vn -0.0746 0 -0.9972
vn 0 -1 0
vn -0.1515 0 -0.9885
f 1//1 7//7 12//12
f 12//12 7//7 15//15
f 16//16 19//19 22//22
f 22//22 19//19 26//26
f 32//32 34//34 39//39
f 39//39 34//34 42//42
f 44//44 51//51 52//52
f 52//52 51//51 58//58
f 27//27 21//21 60//60
f 64//64 30//30 66//66
f 66//66 30//30 38//38
f 66//66 38//38 70//70
f 60//60 73//73 27//27
f 27//27 73//73 76//76
f 27//27 76//76 38//38
f 38//38 76//76 80//80
f 38//38 80//80 70//70
f 33//33 85//85 41//41
f 41//41 85//85 87//87
f 92//92 17//17 93//93
f 93//93 17//17 24//24
f 87//87 98//98 41//41
f 41//41 98//98 102//102
f 41//41 102//102 24//24
f 24//24 102//102 105//105
f 24//24 105//105 93//93
f 86//86 63//63 88//88
f 88//88 63//63 65//65
f 89//89 67//67 100//100
f 97//97 68//68 69//69
f 99//99 71//71 103//103
f 101//101 72//72 83//83
f 104//104 81//81 108//108
f 107//107 82//82 78//78
f 106//106 77//77 94//94
f 95//95 79//79 75//75
f 96//96 74//74 91//91
f 91//91 74//74 61//61
f 110//110 56//56 114//114
f 114//114 56//56 49//49
f 114//114 49//49 119//119
f 122//122 5//5 126//126
f 127//127 6//6 11//11
f 127//127 11//11 131//131
f 120//120 134//134 4//4
f 3//3 135//135 141//141
f 6//6 138//138 49//49
f 48//48 139//139 145//145
f 49//49 143//143 119//119
f 112//112 150//150 57//57
f 56//56 146//146 154//154
f 56//56 154//154 11//11
f 11//11 154//154 158//158
f 11//11 158//158 131//131
f 162//162 166//166 47//47
f 47//47 166//166 10//10
f 9//9 164//164 167//167
f 10//10 169//169 172//172
f 172//172 175//175 10//10
f 10//10 175//175 179//179
f 10//10 179//179 13//13
f 184//184 55//55 187//187
f 188//188 53//53 13//13
f 188//188 13//13 191//191
f 193//193 14//14 180//180
f 185//185 200//200 54//54
f 53//53 196//196 204//204
f 53//53 204//204 47//47
f 45//45 205//205 209//209
f 47//47 206//206 162//162
f 2//2 50//50 8//8
f 8//8 50//50 46//46
f 142//142 165//165 117//117
f 117//117 165//165 161//161
f 118//118 160//160 115//115
f 116//116 159//159 207//207
f 113//113 208//208 111//111
f 111//111 208//208 203//203
f 109//109 202//202 149//149
f 148//148 201//201 198//198
f 147//147 197//197 153//153
f 151//151 199//199 186//186
f 152//152 183//183 155//155
f 156//156 182//182 189//189
f 157//157 190//190 132//132
f 132//132 190//190 195//195
f 130//130 192//192 125//125
f 129//129 194//194 178//178
f 128//128 177//177 123//123
f 124//124 181//181 176//176
f 121//121 174//174 133//133
f 133//133 174//174 171//171
f 136//136 173//173 137//137
f 137//137 173//173 170//170
f 140//140 168//168 144//144
f 144//144 168//168 163//163
f 59//59 20//20 90//90
f 90//90 20//20 18//18
f 35//35 31//31 84//84
f 84//84 31//31 62//62
f 40//40 224//224 227//227
f 43//43 216//216 23//23
f 37//37 219//219 223//223
f 25//25 220//220 29//29
f 227//227 234//234 239//239
f 225//225 229//229 218//218
f 217//217 231//231 220//220
f 222//222 233//233 235//235
f 238//238 242//242 228//228
f 230//230 244//244 231//231
f 236//236 245//245 246//246
f 239//239 247//247 251//251
f 243//243 258//258 248//248
f 251//251 259//259 261//261
f 249//249 253//253 241//241
f 240//240 255//255 244//244
f 263//263 264//264 254//254
f 252//252 268//268 255//255
f 256//256 272//272 260//260
f 261//261 271//271 274//274
f 265//265 214//214 212//212
f 267//267 213//213 270//270
f 274//274 271//271 215//215
f 266//266 210//210 268//268
f 40//40 36//36 224//224
f 43//43 226//226 216//216
f 37//37 28//28 219//219
f 25//25 217//217 220//220
f 227//227 224//224 234//234
f 225//225 237//237 229//229
f 217//217 230//230 231//231
f 222//222 221//221 233//233
f 238//238 250//250 242//242
f 230//230 240//240 244//244
f 236//236 232//232 245//245
f 239//239 234//234 247//247
f 243//243 257//257 258//258
f 251//251 247//247 259//259
f 249//249 262//262 253//253
f 240//240 252//252 255//255
f 263//263 275//275 264//264
f 252//252 266//266 268//268
f 256//256 269//269 272//272
f 261//261 259//259 271//271
f 265//265 273//273 214//214
f 267//267 211//211 213//213
