mtllib material_0.mtl
usemtl material_0
v -0.1637685 -0.0065 0.010259
v -0.1637685 -0.0065 0.010259
v -0.1639791 -0.0065 0.00965
v -0.1501758 -0.0065 0.017435
v -0.1501758 -0.0065 0.017435
v -0.1501758 -0.0065 0.017435
v -0.1356039 -0.0065 0.021443
v -0.1356039 -0.0065 0.021443
v -0.0615753 -0.0065 0.026186
v -0.0615753 -0.0065 0.026186
v -0.0615753 -0.0065 0.026186
v -0.0764208 -0.0065 0.028931
v -0.0764208 -0.0065 0.028931
v -0.0764208 -0.0065 0.028931
v -0.0620208 -0.0065 0.024462
v -0.0620208 -0.0065 0.024462
v -0.0620208 -0.0065 0.024462
v -0.09144 -0.0065 0.029991
v -0.09144 -0.0065 0.029991
v -0.09144 -0.0065 0.029991
v -0.1062477 -0.0065 0.027506
v -0.1062477 -0.0065 0.027506
v -0.1062477 -0.0065 0.027506
v -0.0470565 -0.0065 0.021787
v -0.0470565 -0.0065 0.021787
v -0.0470565 -0.0065 0.021787
v -0.0337284 -0.0065 0.014054
v -0.0337284 -0.0065 0.014054
v -0.0337284 -0.0065 0.014054
v -0.0330129 -0.0065 0.015776
v -0.0330129 -0.0065 0.015776
v -0.0330129 -0.0065 0.015776
v -0.007029 -0.0065 -0.001429
v -0.007029 -0.0065 -0.001429
v -0.0069219 -0.0065 -0.000813
v -0.0069219 -0.0065 -0.000813
v -0.0195885 -0.0065 0.008217
v -0.0195885 -0.0065 0.008217
v -0.0195885 -0.0065 0.008217
v -0.106479 -0.0065 0.029356
v -0.106479 -0.0065 0.029356
v -0.106479 -0.0065 0.029356
v -0.121383 -0.0065 0.027033
v -0.121383 -0.0065 0.027033
v -0.121383 -0.0065 0.027033
v -0.1359981 -0.0065 0.023046
v -0.1359981 -0.0065 0.023046
v -0.1359981 -0.0065 0.023046
v -0.0069219 0.0065 -0.000813
v -0.0069219 0.0065 -0.000813
v -0.007029 0.0065 -0.001429
v -0.007029 0.0065 -0.001429
v -0.0195885 0.0065 0.008217
v -0.0195885 0.0065 0.008217
v -0.0195885 0.0065 0.008217
v -0.0337284 0.0065 0.014054
v -0.0337284 0.0065 0.014054
v -0.0337284 0.0065 0.014054
v -0.0330129 0.0065 0.015776
v -0.0330129 0.0065 0.015776
v -0.0330129 0.0065 0.015776
v -0.1359981 0.0065 0.023046
v -0.1359981 0.0065 0.023046
v -0.1359981 0.0065 0.023046
v -0.121383 0.0065 0.027033
v -0.121383 0.0065 0.027033
v -0.121383 0.0065 0.027033
v -0.1356039 0.0065 0.021443
v -0.1356039 0.0065 0.021443
v -0.1062477 0.0065 0.027506
v -0.1062477 0.0065 0.027506
v -0.1062477 0.0065 0.027506
v -0.1639791 0.0065 0.00965
v -0.1637685 0.0065 0.010259
v -0.1637685 0.0065 0.010259
v -0.1501758 0.0065 0.017435
v -0.1501758 0.0065 0.017435
v -0.1501758 0.0065 0.017435
v -0.0470565 0.0065 0.021787
v -0.0470565 0.0065 0.021787
v -0.0470565 0.0065 0.021787
v -0.0620208 0.0065 0.024462
v -0.0620208 0.0065 0.024462
v -0.0620208 0.0065 0.024462
v -0.0615753 0.0065 0.026186
v -0.0615753 0.0065 0.026186
v -0.0615753 0.0065 0.026186
v -0.106479 0.0065 0.029356
v -0.106479 0.0065 0.029356
v -0.106479 0.0065 0.029356
v -0.09144 0.0065 0.029991
v -0.09144 0.0065 0.029991
v -0.09144 0.0065 0.029991
v -0.0764208 0.0065 0.028931
v -0.0764208 0.0065 0.028931
v -0.0764208 0.0065 0.028931
v -0.1639791 -0.0065 0.00965
v -0.1639791 0.0065 0.00965
v -0.1356039 0.0065 0.021443
v -0.1356039 -0.0065 0.021443
v -0.163161 0.0065 0.009217
v -0.163161 0.0065 0.009217
v -0.163161 -0.0065 0.009217
v -0.163161 -0.0065 0.009217
v -0.163161 0 0.009217
v -0.163161 0 0.009217
v -0.163161 -0.0065 0.009217
v -0.1630557 0.0065 0.009521
v -0.163161 0.0065 0.009217
vn 0 -1 0
vn -0.4292 0 0.9032
vn 0 -1 0
vn 0 -1 0
vn -0.3355 0 0.942
vn -0.4292 0 0.9032
vn 0 -1 0
vn 0.1827 0 -0.9832
vn 0.2631 0 0.9648
vn 0.1641 0 0.9864
vn 0 -1 0
vn 0.1641 0 0.9864
vn 0.0634 0 0.998
vn 0 -1 0
vn -0.0618 0 -0.9981
vn 0 -1 0
vn -0.3143 0 -0.9493
vn 0.0634 0 0.998
vn -0.0379 0 0.9993
vn 0 -1 0
vn 0 -1 0
vn 0.1827 0 -0.9832
vn -0.0618 0 -0.9981
vn 0.2631 0 0.9648
vn 0.3594 0 0.9332
vn 0 -1 0
vn 0 -1 0
vn -0.4627 0 -0.8865
vn -0.3143 0 -0.9493
vn 0 -1 0
vn 0.3594 0 0.9332
vn 0.4521 0 0.892
vn 0 -1 0
vn -0.4627 0 -0.8865
vn 0 -1 0
vn 0.54 0 0.8416
vn 0 -1 0
vn 0.4521 0 0.892
vn 0.54 0 0.8416
vn -0.1389 0 0.9903
vn 0 -1 0
vn -0.0379 0 0.9993
vn 0 -1 0
vn -0.1389 0 0.9903
vn -0.2385 0 0.9712
vn -0.2385 0 0.9712
vn 0 -1 0
vn -0.3355 0 0.942
vn 0.54 0 0.8416
vn 0 1 0
vn 0 1 0
vn -0.4627 0 -0.8865
vn 0.54 0 0.8416
vn 0 1 0
vn 0.4521 0 0.892
vn -0.3143 0 -0.9493
vn -0.4627 0 -0.8865
vn 0 1 0
vn 0.3594 0 0.9332
vn 0 1 0
vn 0.4521 0 0.892
vn -0.2385 0 0.9712
vn -0.3355 0 0.942
vn 0 1 0
vn -0.2385 0 0.9712
vn -0.1389 0 0.9903
vn 0 1 0
vn 0 1 0
vn 0.1827 0 -0.9832
vn -0.0618 0 -0.9981
vn 0.1827 0 -0.9832
vn 0 1 0
vn 0 1 0
vn -0.4292 0 0.9032
vn 0 1 0
vn -0.3355 0 0.942
vn 0 1 0
vn -0.4292 0 0.9032
vn 0 1 0
vn 0.3594 0 0.9332
vn 0.2631 0 0.9648
vn -0.0618 0 -0.9981
vn 0 1 0
vn -0.3143 0 -0.9493
vn 0.1641 0 0.9864
vn 0.2631 0 0.9648
vn 0 1 0
vn -0.0379 0 0.9993
vn -0.1389 0 0.9903
vn 0 1 0
vn 0.0634 0 0.998
vn -0.0379 0 0.9993
vn 0 1 0
vn 0 1 0
vn 0.0634 0 0.998
vn 0.1641 0 0.9864
vn -0.4301 0 -0.9028
vn -0.4301 0 -0.9028
vn 0.3708 0 -0.9287
vn 0.3708 0 -0.9287
vn 0.3708 0 -0.9287
vn -0.4301 0 -0.9028
vn 0.3708 0 -0.9287
vn -0.4301 0 -0.9028
vn -0.4301 0 -0.9028
vn 0.3708 0 -0.9287
vn 0 -1 0
vn 0 1 0
vn 0 1 0
f 1//1 3//3 4//4
f 4//4 107//107 7//7
f 11//11 14//14 16//16
f 16//16 14//14 20//20
f 16//16 20//20 21//21
f 11//11 16//16 26//26
f 26//26 16//16 27//27
f 26//26 27//27 30//30
f 33//33 35//35 27//27
f 27//27 35//35 37//37
f 27//27 37//37 30//30
f 20//20 41//41 21//21
f 21//21 41//41 43//43
f 21//21 43//43 7//7
f 7//7 43//43 47//47
f 7//7 47//47 4//4
f 50//50 51//51 54//54
f 54//54 51//51 58//58
f 54//54 58//58 60//60
f 64//64 67//67 68//68
f 68//68 67//67 72//72
f 108//108 68//68 109//109
f 108//108 77//77 68//68
f 68//68 77//77 64//64
f 60//60 58//58 79//79
f 79//79 58//58 83//83
f 79//79 83//83 87//87
f 67//67 90//90 72//72
f 72//72 90//90 93//93
f 72//72 93//93 83//83
f 83//83 93//93 94//94
f 83//83 94//94 87//87
f 36//36 49//49 53//53
f 36//36 53//53 39//39
f 38//38 55//55 61//61
f 38//38 61//61 32//32
f 31//31 59//59 80//80
f 31//31 80//80 25//25
f 24//24 81//81 86//86
f 24//24 86//86 9//9
f 10//10 85//85 96//96
f 10//10 96//96 12//12
f 13//13 95//95 91//91
f 13//13 91//91 18//18
f 19//19 92//92 88//88
f 19//19 88//88 42//42
f 40//40 89//89 66//66
f 40//40 66//66 44//44
f 45//45 65//65 62//62
f 45//45 62//62 46//46
f 48//48 63//63 76//76
f 48//48 76//76 5//5
f 6//6 78//78 74//74
f 6//6 74//74 2//2
f 98//98 102//102 105//105
f 106//106 100//100 103//103
f 8//8 69//69 71//71
f 8//8 71//71 22//22
f 23//23 70//70 82//82
f 23//23 82//82 15//15
f 17//17 84//84 56//56
f 17//17 56//56 29//29
f 28//28 57//57 52//52
f 28//28 52//52 34//34
f 4//4 3//3 107//107
f 109//109 73//73 108//108
f 73//73 75//75 108//108
f 108//108 75//75 77//77
f 105//105 97//97 98//98
f 101//101 99//99 106//106
f 104//104 97//97 105//105
f 106//106 99//99 100//100
