mtllib material_0.mtl
usemtl material_0
v -0.1760256 -0.0065 0.019319
v -0.1760256 -0.0065 0.019319
v -0.1760256 -0.0065 0.019319
v -0.1760256 -0.0065 0.019319
v -0.1763433 -0.0065 0.018789
v -0.1763433 -0.0065 0.018789
v -0.1763433 -0.0065 0.018789
v -0.1763433 -0.0065 0.018789
v -0.1637685 -0.0065 0.010259
v -0.1637685 -0.0065 0.010259
v -0.1637685 -0.0065 0.010259
v -0.1639791 -0.0065 0.00965
v -0.1639791 -0.0065 0.00965
v 5.67E-05 -0.0065 -0.000597
v 5.67E-05 -0.0065 -0.000597
v 5.67E-05 -0.0065 -0.000597
v 0 -0.0065 0
v 0 -0.0065 0
v 0 -0.0065 0
v -0.007029 -0.0065 -0.001429
v -0.007029 -0.0065 -0.001429
v -0.007029 -0.0065 -0.001429
v -0.007029 -0.0065 -0.001429
v -0.0069219 -0.0065 -0.000813
v -0.0069219 -0.0065 -0.000813
v -0.0069219 -0.0065 -0.000813
v -0.0069219 -0.0065 -0.000813
v 0 0.0065 0
v 0 0.0065 0
v 0 0.0065 0
v 5.67E-05 0.0065 -0.000597
v 5.67E-05 0.0065 -0.000597
v 5.67E-05 0.0065 -0.000597
v -0.0069219 0.0065 -0.000813
v -0.0069219 0.0065 -0.000813
v -0.0069219 0.0065 -0.000813
v -0.0069219 0.0065 -0.000813
v -0.007029 0.0065 -0.001429
v -0.007029 0.0065 -0.001429
v -0.007029 0.0065 -0.001429
v -0.007029 0.0065 -0.001429
v -0.1763433 0.0065 0.018789
v -0.1763433 0.0065 0.018789
v -0.1763433 0.0065 0.018789
v -0.1763433 0.0065 0.018789
v -0.1760256 0.0065 0.019319
v -0.1760256 0.0065 0.019319
v -0.1760256 0.0065 0.019319
v -0.1760256 0.0065 0.019319
v -0.1639791 0.0065 0.00965
v -0.1639791 0.0065 0.00965
v -0.1637685 0.0065 0.010259
v -0.1637685 0.0065 0.010259
v 0 -0.00225 0
v 0 -0.00225 0
v 0 -0.00225 0
v 0 0.00225 0
v 0 0.00225 0
v 0 0.00225 0
v -0.0010071 0.001949 -0.000118
v -0.0010071 0.001949 -0.000118
v -0.0010071 0.001949 -0.000118
v -0.0010071 0.001949 -0.000118
v -0.0017442 0.001125 -0.000205
v -0.0017442 0.001125 -0.000205
v -0.0017442 0.001125 -0.000205
v -0.0010071 -0.001949 -0.000118
v -0.0010071 -0.001949 -0.000118
v -0.0010071 -0.001949 -0.000118
v -0.0017442 -0.001125 -0.000205
v -0.0017442 -0.001125 -0.000205
v -0.0017442 -0.001125 -0.000205
v -0.0017442 -0.001125 -0.000205
v -0.0020133 0 -0.000237
v -0.0020133 0 -0.000237
v -0.0020133 0 -0.000237
v 5.67E-05 0.00225 -0.000597
v 5.67E-05 0.00225 -0.000597
v 5.67E-05 0.00225 -0.000597
v -0.0009504 0.001949 -0.000715
v -0.0009504 0.001949 -0.000715
v -0.0009504 0.001949 -0.000715
v 5.67E-05 -0.00225 -0.000597
v 5.67E-05 -0.00225 -0.000597
v 5.67E-05 -0.00225 -0.000597
v -0.0009504 -0.001949 -0.000715
v -0.0009504 -0.001949 -0.000715
v -0.0009504 -0.001949 -0.000715
v -0.0009504 -0.001949 -0.000715
v -0.0016875 0.001125 -0.000802
v -0.0016875 0.001125 -0.000802
v -0.0016875 0.001125 -0.000802
v -0.0016875 0.001125 -0.000802
v -0.0019566 0 -0.000833
v -0.0019566 0 -0.000833
v -0.0019566 0 -0.000833
v -0.0016875 -0.001125 -0.000802
v -0.0016875 -0.001125 -0.000802
v -0.0016875 -0.001125 -0.000802
v -0.1700955 0.002056 0.014936
v -0.1700955 0.002056 0.014936
v -0.1700955 0.002056 0.014936
v -0.1709577 0.002237 0.015573
v -0.1709577 0.002237 0.015573
v -0.1709577 0.002237 0.015573
v -0.1709577 0.002237 0.015573
v -0.1717722 0.001819 0.016175
v -0.1717722 0.001819 0.016175
v -0.1717722 0.001819 0.016175
v -0.1714653 -0.002056 0.015948
v -0.1714653 -0.002056 0.015948
v -0.1714653 -0.002056 0.015948
v -0.1714653 -0.002056 0.015948
v -0.1706031 -0.002237 0.015311
v -0.1706031 -0.002237 0.015311
v -0.1706031 -0.002237 0.015311
v -0.1706031 -0.002237 0.015311
v -0.1697886 -0.001819 0.014709
v -0.1697886 -0.001819 0.014709
v -0.1697886 -0.001819 0.014709
v -0.1697886 -0.001819 0.014709
v -0.1697886 -0.001819 0.014709
v -0.1721439 -0.001324 0.01645
v -0.1721439 -0.001324 0.01645
v -0.1721439 -0.001324 0.01645
v -0.1721439 -0.001324 0.01645
v -0.1724571 -0.000237 0.016681
v -0.1724571 -0.000237 0.016681
v -0.1724571 -0.000237 0.016681
v -0.1724571 -0.000237 0.016681
v -0.1724571 -0.000237 0.016681
v -0.1724571 -0.000237 0.016681
v -0.1723212 0.000914 0.016581
v -0.1723212 0.000914 0.016581
v -0.1723212 0.000914 0.016581
v -0.1723212 0.000914 0.016581
v -0.1723212 0.000914 0.016581
v -0.1694169 0.001324 0.014434
v -0.1694169 0.001324 0.014434
v -0.1694169 0.001324 0.014434
v -0.1694169 0.001324 0.014434
v -0.1691037 0.000237 0.014203
v -0.1691037 0.000237 0.014203
v -0.1691037 0.000237 0.014203
v -0.1692396 -0.000914 0.014303
v -0.1692396 -0.000914 0.014303
v -0.1692396 -0.000914 0.014303
v -0.1692396 -0.000914 0.014303
v -0.1720899 0.001819 0.015645
v -0.1720899 0.001819 0.015645
v -0.1720899 0.001819 0.015645
v -0.1720899 0.001819 0.015645
v -0.1726389 0.000914 0.016051
v -0.1726389 0.000914 0.016051
v -0.1726389 0.000914 0.016051
v -0.1726389 0.000914 0.016051
v -0.1727748 -0.000237 0.016151
v -0.1727748 -0.000237 0.016151
v -0.1727748 -0.000237 0.016151
v -0.1727748 -0.000237 0.016151
v -0.1727748 -0.000237 0.016151
v -0.1724616 -0.001324 0.01592
v -0.1724616 -0.001324 0.01592
v -0.1724616 -0.001324 0.01592
v -0.1724616 -0.001324 0.01592
v -0.1717821 -0.002056 0.015418
v -0.1717821 -0.002056 0.015418
v -0.1717821 -0.002056 0.015418
v -0.1709208 -0.002237 0.014781
v -0.1709208 -0.002237 0.014781
v -0.1709208 -0.002237 0.014781
v -0.1694214 0.000237 0.013673
v -0.1694214 0.000237 0.013673
v -0.1694214 0.000237 0.013673
v -0.1694214 0.000237 0.013673
v -0.1695573 -0.000914 0.013773
v -0.1695573 -0.000914 0.013773
v -0.1695573 -0.000914 0.013773
v -0.1695573 -0.000914 0.013773
v -0.1701063 -0.001819 0.014179
v -0.1701063 -0.001819 0.014179
v -0.1701063 -0.001819 0.014179
v -0.1697346 0.001324 0.013904
v -0.1697346 0.001324 0.013904
v -0.1697346 0.001324 0.013904
v -0.1704132 0.002056 0.014406
v -0.1704132 0.002056 0.014406
v -0.1704132 0.002056 0.014406
v -0.1704132 0.002056 0.014406
v -0.1704132 0.002056 0.014406
v -0.1712754 0.002237 0.015043
v -0.1712754 0.002237 0.015043
v -0.1712754 0.002237 0.015043
v -0.1712754 0.002237 0.015043
v -0.163161 -0.0065 0.009217
v -0.163161 -0.0065 0.009217
v -0.163161 -0.0065 0.009217
v -0.163161 0.0065 0.009217
v -0.163161 0.0065 0.009217
v -0.163161 0.0065 0.009217
v -0.0383247 -0.0065 -0.002287
v -0.0383247 -0.0065 -0.002287
v -0.0383247 -0.0065 -0.002287
v -0.0382185 -0.0065 -0.001671
v -0.0382185 -0.0065 -0.001671
v -0.0382185 -0.0065 -0.001671
v -0.0382185 0.0065 -0.001671
v -0.0382185 0.0065 -0.001671
v -0.0382185 0.0065 -0.001671
v -0.0383247 0.0065 -0.002287
v -0.0383247 0.0065 -0.002287
v -0.0383247 0.0065 -0.002287
v -0.0701829 -0.0065 -0.001663
v -0.0701829 -0.0065 -0.001663
v -0.0701829 -0.0065 -0.001663
v -0.0700758 -0.0065 -0.001047
v -0.0700758 -0.0065 -0.001047
v -0.0700758 -0.0065 -0.001047
v -0.0700758 0.0065 -0.001047
v -0.0700758 0.0065 -0.001047
v -0.0700758 0.0065 -0.001047
v -0.0701829 0.0065 -0.001663
v -0.0701829 0.0065 -0.001663
v -0.0701829 0.0065 -0.001663
v -0.1015488 -0.0065 0.000442
v -0.1015488 -0.0065 0.000442
v -0.1015488 -0.0065 0.000442
v -0.1014417 -0.0065 0.001058
v -0.1014417 -0.0065 0.001058
v -0.1014417 -0.0065 0.001058
v -0.1014417 0.0065 0.001058
v -0.1014417 0.0065 0.001058
v -0.1014417 0.0065 0.001058
v -0.1015488 0.0065 0.000442
v -0.1015488 0.0065 0.000442
v -0.1015488 0.0065 0.000442
v -0.1328445 -0.0065 0.004262
v -0.1328445 -0.0065 0.004262
v -0.1328445 -0.0065 0.004262
v -0.1327383 -0.0065 0.004878
v -0.1327383 -0.0065 0.004878
v -0.1327383 -0.0065 0.004878
v -0.1327383 0.0065 0.004878
v -0.1327383 0.0065 0.004878
v -0.1327383 0.0065 0.004878
v -0.1328445 0.0065 0.004262
v -0.1328445 0.0065 0.004262
v -0.1328445 0.0065 0.004262
v -0.1607724 -0.0065 0.009018
v -0.1607724 -0.0065 0.009018
v -0.1607724 -0.0065 0.009018
v -0.1606662 -0.0065 0.009634
v -0.1606662 -0.0065 0.009634
v -0.1606662 -0.0065 0.009634
v -0.1606662 0.0065 0.009634
v -0.1606662 0.0065 0.009634
v -0.1606662 0.0065 0.009634
v -0.1607724 0.0065 0.009018
v -0.1607724 0.0065 0.009018
v -0.1607724 0.0065 0.009018
vn 0 -1 0
vn -0.8326 0 0.5539
vn 0.5539 0 0.8326
vn 0.5539 -0.0001 0.8326
vn 0 -1 0
vn -0.8326 0 0.5539
vn -0.554 0 -0.8325
vn -0.5539 0 -0.8326
vn 0.5539 -0.0001 0.8326
vn 0.5539 0 0.8326
vn 0 -1 0
vn -0.5539 0 -0.8326
vn 0 -1 0
vn 0.1052 0 -0.9945
vn 0 -1 0
vn 0.9945 0 0.1052
vn 0.9945 0 0.1052
vn -0.1052 0 0.9945
vn 0 -1 0
vn 0 1 0
vn 0.1052 0 -0.9945
vn 0 -1 0
vn -0.0247 0 0.9997
vn 0 -1 0
vn 0 1 0
vn -0.1052 0 0.9945
vn 0.0247 0 -0.9997
vn 0.9945 0 0.1052
vn 0 1 0
vn -0.1052 0 0.9945
vn 0.1052 0 -0.9945
vn 0.9945 0 0.1052
vn 0 1 0
vn -0.1052 0 0.9945
vn 0 1 0
vn 0.0247 0 -0.9997
vn 0 -1 0
vn 0.1052 0 -0.9945
vn -0.0247 0 0.9997
vn 0 -1 0
vn 0 1 0
vn -0.8326 0 0.5539
vn -0.5539 0.0001 -0.8326
vn -0.5539 0 -0.8326
vn 0 1 0
vn -0.8326 0 0.5539
vn 0 1 0
vn 0.554 0.0001 0.8325
vn 0.5539 0 0.8326
vn 0 1 0
vn -0.5539 0 -0.8326
vn 0.5539 0 0.8326
vn 0 1 0
vn -0.1052 0 0.9945
vn 0.2574 0.9659 0.0272
vn 0.9945 0 0.1052
vn -0.1052 0 0.9945
vn 0.9945 0 0.1052
vn 0.2574 -0.9659 0.0272
vn 0.7032 -0.7071 0.0743
vn -0.1052 0 0.9945
vn 0.2574 -0.9659 0.0272
vn 0.7032 -0.7071 0.0744
vn 0.7032 -0.7071 0.0744
vn 0.9606 -0.2588 0.1016
vn -0.1052 0 0.9945
vn 0.2574 0.9659 0.0272
vn 0.7032 0.7071 0.0743
vn -0.1052 0 0.9945
vn 0.7032 0.7071 0.0743
vn 0.7032 0.7071 0.0744
vn 0.9606 0.2588 0.1016
vn -0.1052 0 0.9945
vn -0.1052 0 0.9945
vn 0.9606 -0.2588 0.1016
vn 0.9606 0.2588 0.1016
vn 0.9945 0 0.1052
vn 0.1052 0 -0.9945
vn 0.2574 -0.9659 0.0272
vn 0.1052 0 -0.9945
vn 0.2574 -0.9659 0.0272
vn 0.7032 -0.7071 0.0743
vn 0.1052 0 -0.9945
vn 0.2574 0.9659 0.0272
vn 0.9945 0 0.1052
vn 0.2574 0.9659 0.0272
vn 0.7032 0.7071 0.0743
vn 0.7032 0.7071 0.0744
vn 0.1052 0 -0.9945
vn 0.9606 -0.2588 0.1016
vn 0.7032 -0.7071 0.0744
vn 0.7032 -0.7071 0.0743
vn 0.1052 0 -0.9945
vn 0.9606 0.2588 0.1016
vn 0.9606 -0.2588 0.1016
vn 0.1052 0 -0.9945
vn 0.9606 0.2588 0.1016
vn 0.1052 0 -0.9945
vn 0.7032 0.7071 0.0744
vn -0.5235 -0.7776 0.3482
vn 0.5539 0 0.8326
vn -0.1297 -0.9878 0.0863
vn 0.2989 -0.9333 -0.1988
vn -0.1297 -0.9878 0.0863
vn 0.5539 0 0.8326
vn 0.2989 -0.9333 -0.1989
vn 0.2989 -0.9333 -0.1989
vn 0.6474 -0.6288 -0.4307
vn 0.5539 0 0.8326
vn 0.5539 0 0.8326
vn 0.5539 -0.0001 0.8326
vn 0.1297 0.9878 -0.0863
vn 0.5235 0.7776 -0.3483
vn 0.5539 0 0.8326
vn 0.5539 -0.0001 0.8326
vn 0.1297 0.9878 -0.0863
vn -0.2989 0.9333 0.1989
vn -0.2989 0.9333 0.1989
vn -0.6474 0.6288 0.4307
vn 0.5539 -0.0001 0.8326
vn 0.5539 0 0.8326
vn -0.6474 0.6288 0.4306
vn 0.5235 0.7776 -0.3483
vn 0.7771 0.359 -0.517
vn 0.5539 0 0.8326
vn 0.5539 -0.0001 0.8326
vn 0.8224 -0.1557 -0.5472
vn 0.7771 0.359 -0.517
vn 0.554 0.0001 0.8325
vn 0.5539 0 0.8326
vn 0.5539 -0.0001 0.8326
vn 0.777 0.359 -0.5171
vn 0.8224 -0.1557 -0.5472
vn 0.5539 0 0.8326
vn 0.8224 -0.1557 -0.5471
vn 0.554 0.0001 0.8325
vn 0.6474 -0.6288 -0.4307
vn -0.5235 -0.7776 0.3482
vn 0.5539 0 0.8326
vn -0.7771 -0.359 0.517
vn -0.5235 -0.7776 0.3483
vn 0.5539 0 0.8326
vn -0.8224 0.1557 0.5472
vn -0.7771 -0.359 0.517
vn -0.8224 0.1557 0.5472
vn -0.8225 0.1557 0.5471
vn -0.6474 0.6288 0.4307
vn 0.5539 0 0.8326
vn 0.6474 -0.6288 -0.4307
vn -0.5539 0 -0.8326
vn 0.2989 -0.9333 -0.1989
vn 0.2989 -0.9333 -0.1988
vn 0.6474 -0.6288 -0.4307
vn -0.554 0 -0.8325
vn -0.5539 0 -0.8326
vn 0.8224 -0.1557 -0.5471
vn -0.5539 0 -0.8326
vn 0.8224 -0.1557 -0.5472
vn 0.777 0.359 -0.5171
vn 0.8224 -0.1557 -0.5471
vn -0.554 0 -0.8325
vn 0.5235 0.7776 -0.3483
vn 0.777 0.359 -0.5171
vn -0.5539 0 -0.8326
vn 0.7771 0.359 -0.517
vn -0.5539 0 -0.8326
vn 0.1297 0.9878 -0.0863
vn 0.5235 0.7776 -0.3483
vn -0.5539 0 -0.8326
vn 0.1297 0.9878 -0.0863
vn -0.2989 0.9333 0.1989
vn -0.7771 -0.359 0.517
vn -0.5539 0 -0.8326
vn -0.8224 0.1557 0.5472
vn -0.8225 0.1557 0.5471
vn -0.6474 0.6288 0.4306
vn -0.5539 0 -0.8326
vn -0.8225 0.1557 0.5471
vn -0.6474 0.6288 0.4307
vn -0.6474 0.6288 0.4306
vn -0.5539 0 -0.8326
vn -0.2989 0.9333 0.1989
vn -0.7771 -0.359 0.517
vn -0.5235 -0.7776 0.3483
vn -0.5539 0 -0.8326
vn -0.5539 0.0001 -0.8326
vn -0.5539 0 -0.8326
vn -0.1297 -0.9878 0.0863
vn -0.5235 -0.7776 0.3482
vn -0.5235 -0.7776 0.3483
vn -0.5539 0.0001 -0.8326
vn -0.5539 0 -0.8326
vn -0.1297 -0.9878 0.0863
vn 0.2989 -0.9333 -0.1988
vn 0 1 0
vn 0.1489 0 -0.9889
vn 0.0746 0 0.9972
vn 0 -1 0
vn 0.0746 0 0.9972
vn 0.1489 0 -0.9889
vn -0.0247 0 0.9997
vn 0.0176 0 0.9998
vn 0 1 0
vn -0.0176 0 -0.9998
vn 0.0247 0 -0.9997
vn 0 1 0
vn 0.0247 0 -0.9997
vn 0 -1 0
vn -0.0176 0 -0.9998
vn 0 -1 0
vn -0.0247 0 0.9997
vn 0.0176 0 0.9998
vn 0.0176 0 0.9998
vn 0 1 0
vn 0.0603 0 0.9982
vn 0 1 0
vn -0.0176 0 -0.9998
vn -0.0603 0 -0.9982
vn 0 -1 0
vn -0.0176 0 -0.9998
vn -0.0603 0 -0.9982
vn 0.0176 0 0.9998
vn 0.0603 0 0.9982
vn 0 -1 0
vn 0 1 0
vn 0.0603 0 0.9982
vn 0.1092 0 0.994
vn 0 1 0
vn -0.0603 0 -0.9982
vn -0.1092 0 -0.994
vn -0.0603 0 -0.9982
vn -0.1092 0 -0.994
vn 0 -1 0
vn 0 -1 0
vn 0.1092 0 0.994
vn 0.0603 0 0.9982
vn 0.1515 0 0.9885
vn 0 1 0
vn 0.1092 0 0.994
vn -0.1515 0 -0.9885
vn -0.1092 0 -0.994
vn 0 1 0
vn 0 -1 0
vn -0.1515 0 -0.9885
vn -0.1092 0 -0.994
vn 0 -1 0
vn 0.1092 0 0.994
vn 0.1515 0 0.9885
vn 0.1515 0 0.9885
vn 0.0746 0 0.9972
vn 0 1 0
vn 0.1489 0 -0.9889
vn 0 1 0
vn -0.1515 0 -0.9885
vn 0.1489 0 -0.9889
vn 0 -1 0
vn -0.1515 0 -0.9885
vn 0.0746 0 0.9972
vn 0.1515 0 0.9885
vn 0 -1 0
f 1//1 5//5 11//11
f 11//11 5//5 13//13
f 15//15 19//19 22//22
f 22//22 19//19 24//24
f 29//29 33//33 35//35
f 35//35 33//33 41//41
f 45//45 47//47 50//50
f 50//50 47//47 53//53
f 26//26 18//18 54//54
f 57//57 30//30 61//61
f 61//61 30//30 34//34
f 61//61 34//34 66//66
f 54//54 69//69 26//26
f 26//26 69//69 73//73
f 26//26 73//73 34//34
f 34//34 73//73 74//74
f 34//34 74//74 66//66
f 31//31 78//78 38//38
f 38//38 78//78 80//80
f 83//83 14//14 89//89
f 89//89 14//14 21//21
f 80//80 93//93 38//38
f 38//38 93//93 96//96
f 38//38 96//96 21//21
f 21//21 96//96 98//98
f 21//21 98//98 89//89
f 79//79 59//59 81//81
f 81//81 59//59 62//62
f 82//82 60//60 92//92
f 91//91 63//63 64//64
f 90//90 65//65 95//95
f 95//95 65//65 75//75
f 94//94 76//76 97//97
f 97//97 76//76 72//72
f 99//99 71//71 88//88
f 87//87 70//70 68//68
f 86//86 67//67 84//84
f 84//84 67//67 55//55
f 101//101 52//52 105//105
f 105//105 52//52 49//49
f 105//105 49//49 109//109
f 111//111 4//4 115//115
f 114//114 3//3 10//10
f 115//115 9//9 120//120
f 110//110 125//125 3//3
f 4//4 126//126 131//131
f 3//3 130//130 49//49
f 48//48 129//129 136//136
f 49//49 134//134 109//109
f 101//101 139//139 52//52
f 52//52 139//139 142//142
f 52//52 142//142 10//10
f 10//10 142//142 148//148
f 10//10 148//148 121//121
f 150//150 155//155 44//44
f 44//44 155//155 8//8
f 7//7 154//154 161//161
f 8//8 157//157 164//164
f 164//164 166//166 8//8
f 8//8 166//166 169//169
f 8//8 169//169 12//12
f 173//173 51//51 177//177
f 177//177 51//51 12//12
f 177//177 12//12 181//181
f 181//181 12//12 169//169
f 173//173 185//185 51//51
f 51//51 185//185 187//187
f 51//51 187//187 44//44
f 43//43 186//186 191//191
f 44//44 192//192 150//150
f 2//2 46//46 6//6
f 6//6 46//46 42//42
f 137//137 153//153 108//108
f 108//108 153//153 149//149
f 107//107 151//151 106//106
f 103//103 152//152 194//194
f 104//104 193//193 102//102
f 102//102 193//193 188//188
f 100//100 189//189 138//138
f 141//141 190//190 184//184
f 140//140 183//183 144//144
f 144//144 183//183 172//172
f 143//143 174//174 145//145
f 146//146 175//175 178//178
f 147//147 179//179 119//119
f 122//122 176//176 180//180
f 118//118 182//182 117//117
f 117//117 182//182 171//171
f 116//116 170//170 112//112
f 112//112 170//170 167//167
f 113//113 168//168 123//123
f 123//123 168//168 162//162
f 124//124 165//165 128//128
f 132//132 163//163 159//159
f 127//127 158//158 133//133
f 135//135 160//160 156//156
f 56//56 17//17 85//85
f 85//85 17//17 16//16
f 32//32 28//28 77//77
f 77//77 28//28 58//58
f 40//40 208//208 210//210
f 39//39 201//201 23//23
f 36//36 205//205 207//207
f 20//20 206//206 25//25
f 210//210 219//219 224//224
f 212//212 213//213 202//202
f 203//203 216//216 206//206
f 209//209 217//217 220//220
f 223//223 226//226 215//215
f 214//214 228//228 216//216
f 221//221 229//229 231//231
f 224//224 233//233 234//234
f 230//230 245//245 232//232
f 234//234 243//243 246//246
f 235//235 239//239 227//227
f 225//225 242//242 228//228
f 248//248 249//249 237//237
f 238//238 253//253 242//242
f 240//240 257//257 244//244
f 246//246 256//256 260//260
f 250//250 199//199 197//197
f 252//252 200//200 255//255
f 260//260 256//256 198//198
f 251//251 195//195 253//253
f 40//40 37//37 208//208
f 39//39 211//211 201//201
f 36//36 27//27 205//205
f 20//20 203//203 206//206
f 210//210 208//208 219//219
f 212//212 222//222 213//213
f 203//203 214//214 216//216
f 209//209 204//204 217//217
f 223//223 236//236 226//226
f 214//214 225//225 228//228
f 221//221 218//218 229//229
f 224//224 219//219 233//233
f 230//230 241//241 245//245
f 234//234 233//233 243//243
f 235//235 247//247 239//239
f 225//225 238//238 242//242
f 248//248 259//259 249//249
f 238//238 251//251 253//253
f 240//240 254//254 257//257
f 246//246 243//243 256//256
f 250//250 258//258 199//199
f 252//252 196//196 200//200
