mtllib material_0.mtl
usemtl material_0
v -0.039347 0.042548 0.064288
v -0.039526 0.042548 0.064351
v -0.039526 0.042548 0.064351
v -0.039715 0.042548 0.063807
v -0.039715 0.042548 0.063807
v -0.050312 0.042548 0.067493
v -0.050312 0.042548 0.067493
v -0.04803 0.042548 0.074057
v -0.04803 0.042548 0.074057
v -0.037432 0.042548 0.070372
v -0.037432 0.042548 0.070372
v -0.049416 0.042548 0.073084
v -0.049184 0.042548 0.073426
v -0.038561 0.042548 0.064438
v -0.038934 0.042548 0.064258
v -0.038934 0.042548 0.064258
v -0.048811 0.042548 0.073607
v -0.048811 0.042548 0.073607
v -0.048398 0.042548 0.073577
v -0.048218 0.042548 0.073514
v -0.037099 0.042548 0.069534
v -0.037099 0.042548 0.069534
v -0.037442 0.042548 0.069766
v -0.037621 0.042548 0.069829
v -0.036919 0.042548 0.069161
v -0.036949 0.042548 0.068748
v -0.038328 0.042548 0.064781
v -0.050796 0.042548 0.069117
v -0.050826 0.042548 0.068704
v -0.050646 0.042548 0.068331
v -0.050303 0.042548 0.068098
v -0.050303 0.042548 0.068098
v -0.050124 0.042548 0.068036
v -0.03245 0.0392 0.065351
v -0.03245 0.0392 0.065351
v -0.02921 0.0392 0.064224
v -0.02921 0.0392 0.064224
v -0.032677 0.0392 0.0647
v -0.032677 0.0392 0.0647
v -0.03164 0.0392 0.06507
v -0.03164 0.0392 0.06507
v -0.029436 0.0392 0.063573
v -0.029436 0.0392 0.063573
v -0.03002 0.0392 0.064506
v -0.03002 0.0392 0.064506
v -0.030246 0.0392 0.063855
v -0.030246 0.0392 0.063855
v -0.031867 0.0392 0.064418
v -0.031867 0.0392 0.064418
v -0.032677 0.042628 0.0647
v -0.032677 0.042628 0.0647
v -0.032677 0.042628 0.0647
v -0.032677 0.042628 0.0647
v -0.032677 0.042628 0.0647
v -0.03245 0.042628 0.065351
v -0.03245 0.042628 0.065351
v -0.03245 0.042628 0.065351
v -0.03245 0.042628 0.065351
v -0.03245 0.042628 0.065351
v -0.03164 0.042628 0.06507
v -0.03164 0.042628 0.06507
v -0.03164 0.042628 0.06507
v -0.03164 0.042628 0.06507
v -0.029436 0.042628 0.063573
v -0.029436 0.042628 0.063573
v -0.029436 0.042628 0.063573
v -0.029436 0.042628 0.063573
v -0.029436 0.042628 0.063573
v -0.02921 0.042628 0.064224
v -0.02921 0.042628 0.064224
v -0.02921 0.042628 0.064224
v -0.02921 0.042628 0.064224
v -0.03002 0.042628 0.064506
v -0.03002 0.042628 0.064506
v -0.03002 0.042628 0.064506
v -0.03002 0.042628 0.064506
v -0.03002 0.042628 0.064506
v -0.030246 0.042628 0.063855
v -0.030246 0.042628 0.063855
v -0.030246 0.042628 0.063855
v -0.030246 0.042628 0.063855
v -0.030246 0.042628 0.063855
v -0.031867 0.042628 0.064418
v -0.031867 0.042628 0.064418
v -0.031867 0.042628 0.064418
v -0.031867 0.042628 0.064418
v -0.031867 0.042628 0.064418
v -0.032508 0.042852 0.06476
v -0.032508 0.042852 0.06476
v -0.032508 0.042852 0.06476
v -0.032508 0.042852 0.06476
v -0.032355 0.042852 0.0652
v -0.032355 0.042852 0.0652
v -0.032355 0.042852 0.0652
v -0.032355 0.042852 0.0652
v -0.031809 0.042852 0.06501
v -0.031809 0.042852 0.06501
v -0.031809 0.042852 0.06501
v -0.031809 0.042852 0.06501
v -0.029531 0.042852 0.063725
v -0.029531 0.042852 0.063725
v -0.029531 0.042852 0.063725
v -0.029378 0.042852 0.064164
v -0.029378 0.042852 0.064164
v -0.029378 0.042852 0.064164
v -0.029378 0.042852 0.064164
v -0.029925 0.042852 0.064354
v -0.029925 0.042852 0.064354
v -0.029925 0.042852 0.064354
v -0.029925 0.042852 0.064354
v -0.030078 0.042852 0.063915
v -0.030078 0.042852 0.063915
v -0.030078 0.042852 0.063915
v -0.030078 0.042852 0.063915
v -0.031962 0.042852 0.06457
v -0.031962 0.042852 0.06457
v -0.031962 0.042852 0.06457
v -0.039703 0.042548 0.064654
v -0.039703 0.042548 0.064654
v -0.039868 0.042548 0.064711
v -0.039868 0.042548 0.064711
v -0.040042 0.042548 0.064211
v -0.040042 0.042548 0.064211
v -0.049804 0.042548 0.067606
v -0.049804 0.042548 0.067606
v -0.047702 0.042548 0.073653
v -0.047702 0.042548 0.073653
v -0.037939 0.042548 0.070258
v -0.037939 0.042548 0.070258
v -0.048979 0.042548 0.072756
v -0.048765 0.042548 0.073072
v -0.038979 0.042548 0.064792
v -0.039322 0.042548 0.064626
v -0.039322 0.042548 0.064626
v -0.048421 0.042548 0.073238
v -0.048421 0.042548 0.073238
v -0.048041 0.042548 0.07321
v -0.047876 0.042548 0.073153
v -0.037632 0.042548 0.069486
v -0.037632 0.042548 0.069486
v -0.037948 0.042548 0.0697
v -0.038113 0.042548 0.069758
v -0.037466 0.042548 0.069143
v -0.037494 0.042548 0.068762
v -0.038765 0.042548 0.065108
v -0.05025 0.042548 0.069102
v -0.050278 0.042548 0.068721
v -0.050111 0.042548 0.068378
v -0.049796 0.042548 0.068164
v -0.049796 0.042548 0.068164
v -0.04963 0.042548 0.068106
vn 0 1 0
vn 0.0001 1 0
vn 0 1 0
vn 0 1 0
vn 0 -1 0
vn 0 -1 0
vn 0 1 0
vn 0 -1 0
vn 0 1 0
vn 0 -1 0
vn 0 1 0
vn 0 1 0
vn 0 1 0
vn 0 1 0
vn 0 -1 0
vn 0 1 0
vn 0 1 0
vn 0 -1 0
vn 0 1 0
vn 0 1 0
vn 0 -1 0
vn 0 1 0
vn 0 1 0
vn 0 1 0
vn 0 1 0
vn 0 1 0
vn 0 1 0
vn 0 1 0
vn 0 1 0
vn 0 1 0
vn 0 1 0
vn 0 -1 0
vn 0 1 0
vn 0.9445 0 -0.3284
vn -0.3284 0 -0.9445
vn -0.3285 0 -0.9445
vn -0.9445 0 0.3285
vn 0.3285 0 0.9445
vn 0.9445 0 -0.3284
vn -0.9445 0 0.3285
vn -0.3284 0 -0.9445
vn -0.9445 0 0.3285
vn 0.3284 0 0.9445
vn -0.3285 0 -0.9445
vn 0.9445 0 -0.3284
vn 0.3284 0 0.9445
vn 0.9445 0 -0.3284
vn 0.3285 0 0.9445
vn -0.9445 0 0.3285
vn 0.2937 -0.4476 0.8446
vn 0.8018 -0.5286 -0.2788
vn 0.3285 0 0.9445
vn 0.8019 -0.5284 -0.2789
vn 0.9445 0 -0.3284
vn 0.8018 -0.5286 -0.2788
vn -0.2937 -0.4476 -0.8446
vn -0.2937 -0.4477 -0.8446
vn 0.9445 0 -0.3284
vn -0.3284 0 -0.9445
vn -0.9445 0 0.3285
vn -0.3284 0 -0.9445
vn -0.8018 -0.5286 0.2788
vn -0.2937 -0.4477 -0.8446
vn 0.2937 -0.4476 0.8446
vn -0.9445 0 0.3285
vn 0.3284 0 0.9445
vn -0.8018 -0.5286 0.2789
vn 0.2937 -0.4477 0.8446
vn -0.8018 -0.5286 0.2789
vn -0.9445 0 0.3285
vn -0.2937 -0.4477 -0.8446
vn -0.3285 0 -0.9445
vn 0.9445 0 -0.3284
vn -0.3285 0 -0.9445
vn 0.8018 -0.5286 -0.2788
vn -0.2938 -0.4476 -0.8446
vn -0.2937 -0.4477 -0.8446
vn 0.3284 0 0.9445
vn 0.9445 0 -0.3284
vn 0.8018 -0.5286 -0.2788
vn 0.8018 -0.5287 -0.2787
vn 0.2937 -0.4477 0.8446
vn 0.3285 0 0.9445
vn -0.9445 0 0.3285
vn -0.8018 -0.5286 0.2788
vn 0.2937 -0.4476 0.8446
vn 0.2936 -0.4479 0.8445
vn 0.2937 -0.4476 0.8446
vn 0.8019 -0.5284 -0.2789
vn 0.2936 -0.4479 0.8445
vn 0 -1 0
vn 0 -1 0
vn 0.8018 -0.5286 -0.2788
vn 0.8019 -0.5284 -0.2789
vn -0.2937 -0.4476 -0.8446
vn 0 -1 0
vn -0.8018 -0.5286 0.2788
vn -0.2937 -0.4477 -0.8446
vn -0.2937 -0.4476 -0.8446
vn 0.2937 -0.4476 0.8446
vn -0.8018 -0.5286 0.2789
vn 0 -1 0
vn -0.2938 -0.4476 -0.8446
vn -0.8018 -0.5286 0.2789
vn -0.2937 -0.4477 -0.8446
vn 0 -1 0
vn -0.2938 -0.4476 -0.8446
vn 0 -1 0
vn 0.8018 -0.5286 -0.2788
vn 0.8018 -0.5287 -0.2787
vn 0.2937 -0.4476 0.8446
vn 0.2937 -0.4477 0.8446
vn 0.8018 -0.5287 -0.2787
vn 0 -1 0
vn 0 -1 0
vn 0.2936 -0.4479 0.8445
vn -0.8018 -0.5286 0.2788
vn 0 1 0
vn 0.0001 1 0
vn 0.0001 1 0
vn 0 1 0
vn 0 -1 0
vn 0 1 0
vn 0 1 0
vn 0 -1 0
vn 0 1 0
vn 0 -1 0
vn 0 1 0
vn 0 -1 0
vn 0 1 0
vn 0 1 0
vn 0 1 0
vn 0 1 0
vn 0 -1 0
vn 0 1 0
vn 0 -1 0
vn 0 1 0
vn 0 1 0
vn 0 -1 0
vn 0 1 0
vn 0 1 0
vn 0 1 0
vn 0 1 0
vn 0 1 0
vn 0 1 0
vn 0 1 0
vn 0 1 0
vn 0 1 0
vn 0 -1 0
vn 0 1 0
vn 0 1 0
vt 0.00000000 0.00000000
vt 0.00000000 0.00000000
vt 0.00000000 0.00000000
vt 0.00000000 0.00000000
vt 0.00000000 0.00000000
vt 0.00000000 0.00000000
vt 0.00000000 0.00000000
vt 0.00000000 0.00000000
vt 0.00000000 0.00000000
vt 0.00000000 0.00000000
vt 0.00000000 0.00000000
vt 0.00000000 0.00000000
vt 0.00000000 0.00000000
vt 0.00000000 0.00000000
vt 0.00000000 0.00000000
vt 0.00000000 0.00000000
vt 0.00000000 0.00000000
vt 0.00000000 0.00000000
vt 0.00000000 0.00000000
vt 0.00000000 0.00000000
vt 0.00000000 0.00000000
vt 0.00000000 0.00000000
vt 0.00000000 0.00000000
vt 0.00000000 0.00000000
vt 0.00000000 0.00000000
vt 0.00000000 0.00000000
vt 0.00000000 0.00000000
vt 0.00000000 0.00000000
vt 0.00000000 0.00000000
vt 0.00000000 0.00000000
vt 0.00000000 0.00000000
vt 0.00000000 0.00000000
vt 0.00000000 0.00000000
vt 0.00000000 0.00000000
vt 0.00000000 0.00000000
vt 0.00000000 0.00000000
vt 0.00000000 0.00000000
vt 0.00000000 0.00000000
vt 0.00000000 0.00000000
vt 0.00000000 0.00000000
vt 0.00000000 0.00000000
vt 0.00000000 0.00000000
vt 0.00000000 0.00000000
vt 0.00000000 0.00000000
vt 0.00000000 0.00000000
vt 0.00000000 0.00000000
vt 0.00000000 0.00000000
vt 0.00000000 0.00000000
vt 0.00000000 0.00000000
vt 0.00000000 0.00000000
vt 0.00000000 0.00000000
vt 0.00000000 0.00000000
vt 0.00000000 0.00000000
vt 0.00000000 0.00000000
vt 0.00000000 0.00000000
vt 0.00000000 0.00000000
vt 0.00000000 0.00000000
vt 0.00000000 0.00000000
vt 0.00000000 0.00000000
vt 0.00000000 0.00000000
vt 0.00000000 0.00000000
vt 0.00000000 0.00000000
vt 0.00000000 0.00000000
vt 0.00000000 0.00000000
vt 0.00000000 0.00000000
vt 0.00000000 0.00000000
vt 0.00000000 0.00000000
vt 0.00000000 0.00000000
vt 0.00000000 0.00000000
vt 0.00000000 0.00000000
vt 0.00000000 0.00000000
vt 0.00000000 0.00000000
vt 0.00000000 0.00000000
vt 0.00000000 0.00000000
vt 0.00000000 0.00000000
vt 0.00000000 0.00000000
vt 0.00000000 0.00000000
vt 0.00000000 0.00000000
vt 0.00000000 0.00000000
vt 0.00000000 0.00000000
vt 0.00000000 0.00000000
vt 0.00000000 0.00000000
vt 0.00000000 0.00000000
vt 0.00000000 0.00000000
vt 0.00000000 0.00000000
vt 0.00000000 0.00000000
vt 0.00000000 0.00000000
vt 0.00000000 0.00000000
vt 0.00000000 0.00000000
vt 0.00000000 0.00000000
vt 0.00000000 0.00000000
vt 0.00000000 0.00000000
vt 0.00000000 0.00000000
vt 0.00000000 0.00000000
vt 0.00000000 0.00000000
vt 0.00000000 0.00000000
vt 0.00000000 0.00000000
vt 0.00000000 0.00000000
vt 0.00000000 0.00000000
vt 0.00000000 0.00000000
vt 0.00000000 0.00000000
vt 0.00000000 0.00000000
vt 0.00000000 0.00000000
vt 0.00000000 0.00000000
vt 0.00000000 0.00000000
vt 0.00000000 0.00000000
vt 0.00000000 0.00000000
vt 0.00000000 0.00000000
vt 0.00000000 0.00000000
vt 0.00000000 0.00000000
vt 0.00000000 0.00000000
vt 0.00000000 0.00000000
vt 0.00000000 0.00000000
vt 0.00000000 0.00000000
vt 0.00000000 0.00000000
vt 0.00000000 0.00000000
vt 0.00000000 0.00000000
vt 0.00000000 0.00000000
vt 0.00000000 0.00000000
vt 0.00000000 0.00000000
vt 0.00000000 0.00000000
vt 0.00000000 0.00000000
vt 0.00000000 0.00000000
vt 0.00000000 0.00000000
vt 0.00000000 0.00000000
vt 0.00000000 0.00000000
vt 0.00000000 0.00000000
vt 0.00000000 0.00000000
vt 0.00000000 0.00000000
vt 0.00000000 0.00000000
vt 0.00000000 0.00000000
vt 0.00000000 0.00000000
vt 0.00000000 0.00000000
vt 0.00000000 0.00000000
vt 0.00000000 0.00000000
vt 0.00000000 0.00000000
vt 0.00000000 0.00000000
vt 0.00000000 0.00000000
vt 0.00000000 0.00000000
vt 0.00000000 0.00000000
vt 0.00000000 0.00000000
vt 0.00000000 0.00000000
vt 0.00000000 0.00000000
vt 0.00000000 0.00000000
vt 0.00000000 0.00000000
vt 0.00000000 0.00000000
vt 0.00000000 0.00000000
vt 0.00000000 0.00000000
vt 0.00000000 0.00000000
vt 0.00000000 0.00000000
vt 0.00000000 0.00000000
f 33/33/33 124/124/124 7/7/7
f 30/30/30 147/147/147 148/148/148
f 31/31/31 148/148/148 150/150/150
f 27/27/27 144/144/144 26/26/26
f 43/43/43 78/78/78 46/46/46
f 44/44/44 72/72/72 36/36/36
f 86/86/86 88/88/88 50/50/50
f 51/51/51 93/93/93 55/55/55
f 48/48/48 52/52/52 38/38/38
f 40/40/40 84/84/84 49/49/49
f 37/37/37 65/65/65 42/42/42
f 35/35/35 61/61/61 41/41/41
f 39/39/39 58/58/58 34/34/34
f 47/47/47 73/73/73 45/45/45
f 102/102/102 108/108/108 114/114/114
f 115/115/115 92/92/92 91/91/91
f 68/68/68 112/112/112 82/82/82
f 77/77/77 105/105/105 71/71/71
f 57/57/57 98/98/98 63/63/63
f 62/62/62 117/117/117 85/85/85
f 80/80/80 109/109/109 75/75/75
f 69/69/69 101/101/101 67/67/67
f 20/20/20 137/137/137 19/19/19
f 3/3/3 118/118/118 1/1/1
f 16/16/16 132/132/132 14/14/14
f 12/12/12 131/131/131 130/130/130
f 8/8/8 136/136/136 127/127/127
f 24/24/24 141/141/141 142/142/142
f 5/5/5 134/134/134 122/122/122
f 20/20/20 126/126/126 138/138/138
f 23/23/23 140/140/140 141/141/141
f 10/10/10 139/139/139 21/21/21
f 28/28/28 130/130/130 146/146/146
f 27/27/27 132/132/132 145/145/145
f 24/24/24 128/128/128 11/11/11
f 1/1/1 133/133/133 16/16/16
f 26/26/26 143/143/143 25/25/25
f 4/4/4 124/124/124 123/123/123
f 19/19/19 135/135/135 17/17/17
f 17/17/17 131/131/131 13/13/13
f 22/22/22 143/143/143 140/140/140
f 3/3/3 123/123/123 121/121/121
f 32/32/32 125/125/125 149/149/149
f 11/11/11 126/126/126 9/9/9
f 33/33/33 150/150/150 151/151/151
f 28/28/28 147/147/147 29/29/29
f 33/33/33 151/151/151 124/124/124
f 30/30/30 29/29/29 147/147/147
f 31/31/31 30/30/30 148/148/148
f 27/27/27 145/145/145 144/144/144
f 43/43/43 66/66/66 78/78/78
f 44/44/44 74/74/74 72/72/72
f 87/87/87 116/116/116 90/90/90
f 53/53/53 89/89/89 94/94/94
f 48/48/48 83/83/83 52/52/52
f 40/40/40 60/60/60 84/84/84
f 37/37/37 70/70/70 65/65/65
f 35/35/35 59/59/59 61/61/61
f 39/39/39 54/54/54 58/58/58
f 47/47/47 79/79/79 73/73/73
f 102/102/102 106/106/106 108/108/108
f 115/115/115 96/96/96 92/92/92
f 64/64/64 100/100/100 111/111/111
f 76/76/76 107/107/107 103/103/103
f 56/56/56 95/95/95 99/99/99
f 62/62/62 97/97/97 117/117/117
f 81/81/81 113/113/113 110/110/110
f 69/69/69 104/104/104 101/101/101
f 20/20/20 138/138/138 137/137/137
f 2/2/2 120/120/120 119/119/119
f 16/16/16 133/133/133 132/132/132
f 12/12/12 13/13/13 131/131/131
f 8/8/8 18/18/18 136/136/136
f 24/24/24 23/23/23 141/141/141
f 5/5/5 15/15/15 134/134/134
f 20/20/20 9/9/9 126/126/126
f 23/23/23 22/22/22 140/140/140
f 10/10/10 129/129/129 139/139/139
f 28/28/28 12/12/12 130/130/130
f 27/27/27 14/14/14 132/132/132
f 24/24/24 142/142/142 128/128/128
f 1/1/1 118/118/118 133/133/133
f 26/26/26 144/144/144 143/143/143
f 4/4/4 7/7/7 124/124/124
f 19/19/19 137/137/137 135/135/135
f 17/17/17 135/135/135 131/131/131
f 22/22/22 25/25/25 143/143/143
f 3/3/3 4/4/4 123/123/123
f 32/32/32 6/6/6 125/125/125
f 11/11/11 128/128/128 126/126/126
f 33/33/33 31/31/31 150/150/150
f 28/28/28 146/146/146 147/147/147
