mtllib material_0.mtl
usemtl material_0
v 0.036514 0.020638 0.105728
v 0.045006 0.020619 0.099836
v 0.045006 0.020619 0.099836
v 0.045013 0.027021 0.099826
v 0.036521 0.02704 0.105718
v 0.036068 0.021267 0.106036
v 0.036068 0.021267 0.106036
v 0.045459 0.026392 0.099517
v 0.036074 0.026413 0.106029
v 0.04515 0.021148 0.099735
v 0.03284 0.020634 0.100433
v 0.03284 0.020634 0.100433
v 0.041332 0.020616 0.094541
v 0.04134 0.027018 0.094531
v 0.04134 0.027018 0.094531
v 0.032848 0.027037 0.100423
v 0.032394 0.021264 0.100742
v 0.041785 0.026388 0.094222
v 0.0324 0.026409 0.100734
v 0.0324 0.026409 0.100734
v 0.041476 0.021145 0.09444
v 0.041476 0.021145 0.09444
v 0.043176 0.02702 0.097179
v 0.043176 0.02702 0.097179
v 0.034231 0.021265 0.103389
v 0.034231 0.021265 0.103389
v 0.034231 0.021265 0.103389
v 0.034684 0.027038 0.103071
v 0.034237 0.026411 0.103381
v 0.043313 0.021147 0.097088
v 0.043313 0.021147 0.097088
v 0.043622 0.02639 0.09687
v 0.043622 0.02639 0.09687
v 0.043622 0.02639 0.09687
v 0.034677 0.020636 0.10308
v 0.034677 0.020636 0.10308
v 0.043169 0.020617 0.097188
v 0.043169 0.020617 0.097188
v 0.045236 0.026707 0.099672
v 0.045236 0.026707 0.099672
v 0.042258 0.027019 0.095855
v 0.041562 0.026703 0.094377
v 0.041562 0.026703 0.094377
v 0.033313 0.021265 0.102065
v 0.033313 0.021265 0.102065
v 0.036298 0.026726 0.105874
v 0.036298 0.026726 0.105874
v 0.033766 0.027037 0.101747
v 0.033766 0.027037 0.101747
v 0.032624 0.026723 0.100579
v 0.032624 0.026723 0.100579
v 0.033319 0.02641 0.102058
v 0.033319 0.02641 0.102058
v 0.036291 0.020952 0.105882
v 0.036291 0.020952 0.105882
v 0.042395 0.021146 0.095764
v 0.042395 0.021146 0.095764
v 0.032617 0.020949 0.100587
v 0.032617 0.020949 0.100587
v 0.042704 0.026389 0.095546
v 0.042704 0.026389 0.095546
v 0.033758 0.020635 0.101756
v 0.033758 0.020635 0.101756
v 0.045078 0.020884 0.099785
v 0.045078 0.020884 0.099785
v 0.04225 0.020616 0.095865
v 0.04225 0.020616 0.095865
v 0.04225 0.020616 0.095865
v 0.041404 0.02088 0.094491
v 0.041404 0.02088 0.094491
v 0.041404 0.02088 0.094491
v 0.044095 0.02702 0.098503
v 0.044095 0.02702 0.098503
v 0.035149 0.021266 0.104713
v 0.035149 0.021266 0.104713
v 0.035149 0.021266 0.104713
v 0.035603 0.027039 0.104395
v 0.035603 0.027039 0.104395
v 0.035603 0.027039 0.104395
v 0.035155 0.026412 0.104705
v 0.044232 0.021147 0.098411
v 0.044232 0.021147 0.098411
v 0.044232 0.021147 0.098411
v 0.044541 0.026391 0.098194
v 0.035595 0.020637 0.104404
v 0.044087 0.020618 0.098512
v 0.044087 0.020618 0.098512
v 0.043399 0.026705 0.097024
v 0.043399 0.026705 0.097024
v 0.043399 0.026705 0.097024
v 0.043399 0.026705 0.097024
v 0.043241 0.020882 0.097138
v 0.043241 0.020882 0.097138
v 0.043241 0.020882 0.097138
v 0.043241 0.020882 0.097138
v 0.034461 0.026725 0.103226
v 0.034461 0.026725 0.103226
v 0.034454 0.020951 0.103235
v 0.034454 0.020951 0.103235
v 0.034454 0.020951 0.103235
v 0.034454 0.020951 0.103235
v 0.034454 0.020951 0.103235
v 0.035372 0.020952 0.104558
v 0.035372 0.020952 0.104558
v 0.035372 0.020952 0.104558
v 0.035372 0.020952 0.104558
v 0.035379 0.026725 0.10455
v 0.035379 0.026725 0.10455
v 0.035379 0.026725 0.10455
v 0.044159 0.020883 0.098462
v 0.044159 0.020883 0.098462
v 0.044159 0.020883 0.098462
v 0.044318 0.026706 0.098348
v 0.044318 0.026706 0.098348
v 0.044318 0.026706 0.098348
v 0.042481 0.026704 0.095701
v 0.042481 0.026704 0.095701
v 0.042481 0.026704 0.095701
v 0.042323 0.020881 0.095814
v 0.042323 0.020881 0.095814
v 0.042323 0.020881 0.095814
v 0.042323 0.020881 0.095814
v 0.033542 0.026724 0.101902
v 0.033542 0.026724 0.101902
v 0.033535 0.02095 0.101911
v 0.033535 0.02095 0.101911
v 0.033535 0.02095 0.101911
vn -0.6222 -0.6528 0.4321
vn 0.7798 -0.3154 -0.5408
vn 0.7797 -0.3155 -0.5408
vn 0.6222 0.6528 -0.4321
vn -0.6206 0.6556 0.4302
vn -0.6222 -0.6528 0.4321
vn -0.6223 -0.6527 0.4322
vn 0.6222 0.6528 -0.4321
vn -0.6207 0.6555 0.4302
vn 0.7797 -0.3155 -0.5408
vn -0.6222 -0.6528 0.4321
vn -0.6223 -0.6527 0.4321
vn 0.7797 -0.3156 -0.5408
vn 0.6222 0.6528 -0.4321
vn 0.6223 0.6527 -0.4322
vn -0.6206 0.6556 0.4301
vn -0.6222 -0.6528 0.4321
vn 0.6222 0.6528 -0.4321
vn -0.6206 0.6555 0.4302
vn -0.6207 0.6555 0.4302
vn 0.7798 -0.3155 -0.5408
vn 0.7798 -0.3153 -0.5408
vn 0.6222 0.6528 -0.4321
vn 0.6222 0.6528 -0.4322
vn -0.6222 -0.6527 0.4321
vn -0.6222 -0.6528 0.4322
vn -0.6223 -0.6527 0.4321
vn -0.6207 0.6555 0.4302
vn -0.6207 0.6555 0.4302
vn 0.7797 -0.3154 -0.5408
vn 0.7798 -0.3155 -0.5408
vn 0.6223 0.6527 -0.4322
vn 0.6222 0.6528 -0.4321
vn 0.6223 0.6527 -0.4321
vn -0.6222 -0.6528 0.4321
vn -0.6221 -0.6529 0.4321
vn 0.7798 -0.3155 -0.5408
vn 0.7797 -0.3155 -0.5408
vn 0.6223 0.6527 -0.4322
vn 0.6222 0.6528 -0.4321
vn 0.6222 0.6528 -0.4321
vn 0.6223 0.6527 -0.4322
vn 0.6222 0.6528 -0.4321
vn -0.6222 -0.6528 0.4321
vn -0.6223 -0.6527 0.4321
vn -0.6207 0.6555 0.4302
vn -0.6206 0.6556 0.4302
vn -0.6207 0.6555 0.4302
vn -0.6206 0.6556 0.4301
vn -0.6207 0.6555 0.4302
vn -0.6206 0.6556 0.4301
vn -0.6207 0.6555 0.4302
vn -0.6206 0.6555 0.4302
vn -0.6222 -0.6528 0.4321
vn -0.6223 -0.6527 0.4322
vn 0.7797 -0.3154 -0.5408
vn 0.7798 -0.3155 -0.5408
vn -0.6222 -0.6528 0.4321
vn -0.6223 -0.6527 0.4321
vn 0.6222 0.6528 -0.4321
vn 0.6223 0.6527 -0.4322
vn -0.6221 -0.6529 0.4321
vn -0.6222 -0.6528 0.4321
vn 0.7797 -0.3155 -0.5408
vn 0.7798 -0.3154 -0.5408
vn 0.7797 -0.3155 -0.5408
vn 0.7798 -0.3154 -0.5408
vn 0.7797 -0.3156 -0.5408
vn 0.7797 -0.3156 -0.5408
vn 0.7798 -0.3153 -0.5408
vn 0.7798 -0.3154 -0.5408
vn 0.6223 0.6527 -0.4322
vn 0.6222 0.6528 -0.4321
vn -0.6222 -0.6527 0.4322
vn -0.6222 -0.6528 0.4322
vn -0.6222 -0.6528 0.4321
vn -0.6206 0.6555 0.4302
vn -0.6206 0.6556 0.4302
vn -0.6207 0.6555 0.4302
vn -0.6207 0.6555 0.4302
vn 0.7798 -0.3154 -0.5408
vn 0.7797 -0.3155 -0.5408
vn 0.7798 -0.3155 -0.5408
vn 0.6222 0.6528 -0.4321
vn -0.6222 -0.6528 0.4321
vn 0.7797 -0.3155 -0.5408
vn 0.7798 -0.3155 -0.5408
vn 0.6223 0.6527 -0.4322
vn 0.6222 0.6528 -0.4321
vn 0.6223 0.6527 -0.4321
vn 0.6222 0.6528 -0.4322
vn 0.7798 -0.3154 -0.5408
vn 0.7797 -0.3155 -0.5408
vn 0.7797 -0.3154 -0.5408
vn 0.7798 -0.3155 -0.5408
vn -0.6206 0.6555 0.4302
vn -0.6207 0.6555 0.4302
vn -0.6221 -0.6529 0.4321
vn -0.6222 -0.6528 0.4321
vn -0.6222 -0.6528 0.4322
vn -0.6222 -0.6527 0.4322
vn -0.6222 -0.6527 0.4321
vn -0.6222 -0.6528 0.4321
vn -0.6221 -0.6529 0.4321
vn -0.6223 -0.6527 0.4322
vn -0.6222 -0.6527 0.4322
vn -0.6207 0.6555 0.4302
vn -0.6206 0.6556 0.4302
vn -0.6206 0.6555 0.4302
vn 0.7798 -0.3154 -0.5408
vn 0.7798 -0.3155 -0.5408
vn 0.7797 -0.3155 -0.5408
vn 0.6223 0.6527 -0.4322
vn 0.6223 0.6527 -0.4321
vn 0.6222 0.6528 -0.4321
vn 0.6222 0.6528 -0.4321
vn 0.6223 0.6527 -0.4322
vn 0.6222 0.6528 -0.4322
vn 0.7798 -0.3155 -0.5408
vn 0.7798 -0.3154 -0.5408
vn 0.7797 -0.3154 -0.5408
vn 0.7798 -0.3153 -0.5408
vn -0.6207 0.6555 0.4302
vn -0.6206 0.6555 0.4302
vn -0.6222 -0.6528 0.4321
vn -0.6222 -0.6527 0.4321
vn -0.6223 -0.6527 0.4321
vt 0.00000000 0.00000000
vt 0.00000000 0.00000000
vt 0.00000000 0.00000000
vt 0.00000000 0.00000000
vt 0.00000000 0.00000000
vt 0.00000000 0.00000000
vt 0.00000000 0.00000000
vt 0.00000000 0.00000000
vt 0.00000000 0.00000000
vt 0.00000000 0.00000000
vt 0.00000000 0.00000000
vt 0.00000000 0.00000000
vt 0.00000000 0.00000000
vt 0.00000000 0.00000000
vt 0.00000000 0.00000000
vt 0.00000000 0.00000000
vt 0.00000000 0.00000000
vt 0.00000000 0.00000000
vt 0.00000000 0.00000000
vt 0.00000000 0.00000000
vt 0.00000000 0.00000000
vt 0.00000000 0.00000000
vt 0.00000000 0.00000000
vt 0.00000000 0.00000000
vt 0.00000000 0.00000000
vt 0.00000000 0.00000000
vt 0.00000000 0.00000000
vt 0.00000000 0.00000000
vt 0.00000000 0.00000000
vt 0.00000000 0.00000000
vt 0.00000000 0.00000000
vt 0.00000000 0.00000000
vt 0.00000000 0.00000000
vt 0.00000000 0.00000000
vt 0.00000000 0.00000000
vt 0.00000000 0.00000000
vt 0.00000000 0.00000000
vt 0.00000000 0.00000000
vt 0.00000000 0.00000000
vt 0.00000000 0.00000000
vt 0.00000000 0.00000000
vt 0.00000000 0.00000000
vt 0.00000000 0.00000000
vt 0.00000000 0.00000000
vt 0.00000000 0.00000000
vt 0.00000000 0.00000000
vt 0.00000000 0.00000000
vt 0.00000000 0.00000000
vt 0.00000000 0.00000000
vt 0.00000000 0.00000000
vt 0.00000000 0.00000000
vt 0.00000000 0.00000000
vt 0.00000000 0.00000000
vt 0.00000000 0.00000000
vt 0.00000000 0.00000000
vt 0.00000000 0.00000000
vt 0.00000000 0.00000000
vt 0.00000000 0.00000000
vt 0.00000000 0.00000000
vt 0.00000000 0.00000000
vt 0.00000000 0.00000000
vt 0.00000000 0.00000000
vt 0.00000000 0.00000000
vt 0.00000000 0.00000000
vt 0.00000000 0.00000000
vt 0.00000000 0.00000000
vt 0.00000000 0.00000000
vt 0.00000000 0.00000000
vt 0.00000000 0.00000000
vt 0.00000000 0.00000000
vt 0.00000000 0.00000000
vt 0.00000000 0.00000000
vt 0.00000000 0.00000000
vt 0.00000000 0.00000000
vt 0.00000000 0.00000000
vt 0.00000000 0.00000000
vt 0.00000000 0.00000000
vt 0.00000000 0.00000000
vt 0.00000000 0.00000000
vt 0.00000000 0.00000000
vt 0.00000000 0.00000000
vt 0.00000000 0.00000000
vt 0.00000000 0.00000000
vt 0.00000000 0.00000000
vt 0.00000000 0.00000000
vt 0.00000000 0.00000000
vt 0.00000000 0.00000000
vt 0.00000000 0.00000000
vt 0.00000000 0.00000000
vt 0.00000000 0.00000000
vt 0.00000000 0.00000000
vt 0.00000000 0.00000000
vt 0.00000000 0.00000000
vt 0.00000000 0.00000000
vt 0.00000000 0.00000000
vt 0.00000000 0.00000000
vt 0.00000000 0.00000000
vt 0.00000000 0.00000000
vt 0.00000000 0.00000000
vt 0.00000000 0.00000000
vt 0.00000000 0.00000000
vt 0.00000000 0.00000000
vt 0.00000000 0.00000000
vt 0.00000000 0.00000000
vt 0.00000000 0.00000000
vt 0.00000000 0.00000000
vt 0.00000000 0.00000000
vt 0.00000000 0.00000000
vt 0.00000000 0.00000000
vt 0.00000000 0.00000000
vt 0.00000000 0.00000000
vt 0.00000000 0.00000000
vt 0.00000000 0.00000000
vt 0.00000000 0.00000000
vt 0.00000000 0.00000000
vt 0.00000000 0.00000000
vt 0.00000000 0.00000000
vt 0.00000000 0.00000000
vt 0.00000000 0.00000000
vt 0.00000000 0.00000000
vt 0.00000000 0.00000000
vt 0.00000000 0.00000000
vt 0.00000000 0.00000000
vt 0.00000000 0.00000000
vt 0.00000000 0.00000000
vt 0.00000000 0.00000000
vt 0.00000000 0.00000000
f 45/45/45 59/59/59 127/127/127
f 48/48/48 50/50/50 123/123/123
f 67/67/67 71/71/71 120/120/120
f 60/60/60 43/43/43 116/116/116
f 114/114/114 34/34/34 90/90/90
f 111/111/111 37/37/37 95/95/95
f 77/77/77 96/96/96 109/109/109
f 74/74/74 101/101/101 106/106/106
f 103/103/103 35/35/35 85/85/85
f 54/54/54 85/85/85 1/1/1
f 7/7/7 105/105/105 55/55/55
f 107/107/107 29/29/29 80/80/80
f 46/46/46 80/80/80 9/9/9
f 5/5/5 108/108/108 47/47/47
f 83/83/83 95/95/95 31/31/31
f 10/10/10 112/112/112 82/82/82
f 2/2/2 110/110/110 65/65/65
f 73/73/73 89/89/89 23/23/23
f 40/40/40 73/73/73 4/4/4
f 8/8/8 115/115/115 40/40/40
f 116/116/116 14/14/14 41/41/41
f 23/23/23 116/116/116 41/41/41
f 89/89/89 60/60/60 116/116/116
f 119/119/119 21/21/21 57/57/57
f 94/94/94 56/56/56 30/30/30
f 92/92/92 67/67/67 120/120/120
f 124/124/124 19/19/19 53/53/53
f 97/97/97 52/52/52 29/29/29
f 28/28/28 123/123/123 97/97/97
f 125/125/125 11/11/11 63/63/63
f 98/98/98 62/62/62 36/36/36
f 25/25/25 126/126/126 102/102/102
f 44/44/44 17/17/17 58/58/58
f 49/49/49 16/16/16 51/51/51
f 68/68/68 13/13/13 69/69/69
f 60/60/60 18/18/18 43/43/43
f 115/115/115 84/84/84 33/33/33
f 111/111/111 87/87/87 37/37/37
f 79/79/79 28/28/28 97/97/97
f 75/75/75 26/26/26 100/100/100
f 104/104/104 98/98/98 36/36/36
f 54/54/54 103/103/103 85/85/85
f 6/6/6 76/76/76 103/103/103
f 107/107/107 97/97/97 29/29/29
f 46/46/46 107/107/107 80/80/80
f 5/5/5 78/78/78 108/108/108
f 81/81/81 110/110/110 92/92/92
f 10/10/10 64/64/64 112/112/112
f 3/3/3 86/86/86 112/112/112
f 72/72/72 113/113/113 88/88/88
f 39/39/39 113/113/113 72/72/72
f 8/8/8 84/84/84 115/115/115
f 117/117/117 42/42/42 15/15/15
f 24/24/24 91/91/91 118/118/118
f 88/88/88 32/32/32 61/61/61
f 122/122/122 70/70/70 22/22/22
f 94/94/94 121/121/121 56/56/56
f 93/93/93 38/38/38 66/66/66
f 123/123/123 50/50/50 20/20/20
f 97/97/97 123/123/123 52/52/52
f 28/28/28 48/48/48 123/123/123
f 127/127/127 59/59/59 12/12/12
f 99/99/99 125/125/125 63/63/63
f 27/27/27 45/45/45 127/127/127
