mtllib material.mtl
usemtl material_0
v -0.168917 0.0065 0.011525
v -0.175287 0.0011 0.013232
v -0.175002 0 0.013155
v -0.168917 -0.0065 0.011525
v -0.175287 -0.0011 0.013232
v -0.176065 -0.001905 0.01344
v -0.177127 -0.0065 0.013725
v -0.177127 -0.0022 0.013725
v -0.180267 -0.005629 0.014566
v -0.17819 -0.001905 0.01401
v -0.182565 -0.00325 0.015182
v -0.178968 -0.0011 0.014218
v -0.183406 0 0.015407
v -0.179252 0 0.014294
v -0.182565 0.00325 0.015182
v -0.178968 0.0011 0.014218
v -0.180267 0.005629 0.014566
v -0.17819 0.001905 0.01401
v -0.177127 0.0065 0.013725
v -0.177127 0.0022 0.013725
v -0.176065 0.001905 0.01344
v -0.168802 0.0065 0.010936
v -0.168802 -0.0065 0.010936
v -0.177267 0.0065 0.013204
v -0.180406 0.005629 0.014045
v -0.182704 0.00325 0.014661
v -0.183545 0 0.014886
v -0.182704 -0.00325 0.014661
v -0.180406 -0.005629 0.014045
v -0.177267 -0.0065 0.013204
v -0.145395 -0.0065 0.014604
v -0.145395 0.0065 0.014604
v -0.121781 -0.0065 0.016531
v -0.121781 0.0065 0.016531
v -0.098089 -0.0065 0.016704
v -0.098089 0.0065 0.016704
v -0.074449 -0.0065 0.015125
v -0.074449 0.0065 0.015125
v -0.05099 -0.0065 0.011801
v -0.05099 0.0065 0.011801
v -0.027842 -0.0065 0.00675
v -0.027842 0.0065 0.00675
v -0.005131 -0.0065 0
v -0.005131 0.0065 0
v 0.005525 -0.000821 0
v 0.005525 -0.001834 0
v 0.001905 -0.0011 0
v 0.0022 0 0
v -0.0011 0.001905 0
v -0.001905 0.0011 0
v -0.0022 0 0
v -0.001905 -0.0011 0
v -0.0011 -0.001905 0
v 0 -0.0022 0
v 0.005525 -0.003033 0
v 0.005525 -0.0065 0
v 0.0011 -0.001905 0
v 0.005525 -0.002647 0
v 0.005525 -0.000397 0
v 0.005525 0.000397 0
v 0.001905 0.0011 0
v 0.005525 0.001393 0
v 0.005525 0.001834 0
v 0.005525 0.002647 0
v 0.0011 0.001905 0
v 0.005525 0.0065 0
v 0 0.0022 0
v -0.001905 0.0011 0.0006
v -0.005032 0.0065 0.0006
v -0.0022 0 0.0006
v -0.005032 -0.0065 0.0006
v -0.001905 -0.0011 0.0006
v -0.0011 -0.001905 0.0006
v 0.005526 -0.000397 0.0006
v 0.005526 0.000397 0.0006
v 0.0022 0 0.0006
v 0.001905 -0.0011 0.0006
v 0.0011 -0.001905 0.0006
v 0.005526 -0.002647 0.0006
v 0.005526 -0.001834 0.0006
v -0.0011 0.001905 0.0006
v 0 0.0022 0.0006
v 0.005526 0.003033 0.0006
v 0.005526 0.0065 0.0006
v 0.0011 0.001905 0.0006
v 0.005526 0.002647 0.0006
v 0.001905 0.0011 0.0006
v 0.005526 0.001834 0.0006
v 0.005526 -0.0065 0.0006
v 0 -0.0022 0.0006
v 0.005526 0.000821 0.0006
v 0.005526 -0.001393 0.0006
v -0.027774 0.0065 0.007352
v -0.027774 -0.0065 0.007352
v -0.050953 0.0065 0.012404
v -0.050953 -0.0065 0.012404
v -0.074443 0.0065 0.015728
v -0.074443 -0.0065 0.015728
v -0.098113 0.0065 0.017305
v -0.098113 -0.0065 0.017305
v -0.121836 0.0065 0.017129
v -0.121836 -0.0065 0.017129
v -0.14548 0.0065 0.015198
v -0.14548 -0.0065 0.015198
v 0.005526 -0.0065 0.00019
v 0.005526 0.0065 0.000411
v -0.137728 0.008835 0.011605
v -0.140586 -0.010712 0.014147
v -0.137217 0.010443 0.011789
v -0.151233 -0.010368 -0.001175
v -0.151257 -0.009692 -0.001438
v -0.153127 -0.0115 0.009365
v -0.153066 -0.0115 0.009593
v -0.153078 -0.0115 0.009637
v -0.153066 -0.011486 0.009593
v -0.144433 -0.0095 0.0141
v -0.144433 0.0095 0.0141
v -0.151717 -0.0095 -0.001482
v -0.153528 -0.0105 0.011265
v -0.153564 -0.010265 0.011394
v -0.15359 -0.010018 0.011488
v -0.153302 -0.011232 0.010447
v -0.153455 0.010914 0.011
v -0.153455 -0.010914 0.011
v -0.15357 -0.010265 0.011418
v -0.142666 0.010372 0.014381
v -0.142679 0.010366 0.01438
v -0.140616 0.010523 0.014477
v -0.140833 -0.010916 0.014467
v -0.140936 -0.010911 0.014462
v -0.151673 -0.009651 -0.001513
v -0.148377 0.011045 -0.00382
v -0.151701 -0.009616 -0.001493
v -0.15169 -0.009637 -0.0015
v -0.151683 -0.009646 -0.001506
v -0.151706 -0.009596 -0.001489
v -0.144418 0.009508 0.014104
v -0.144418 -0.009508 0.014104
v -0.140939 -0.010914 0.014457
v -0.151673 -0.010256 -0.00126
v -0.151386 -0.009692 -0.001542
v -0.151355 -0.009693 -0.001521
v -0.151322 -0.010422 -0.00124
v -0.151344 -0.009693 -0.001515
v -0.151301 -0.009694 -0.001488
v -0.151263 -0.009693 -0.001446
v -0.151567 -0.009671 -0.001557
v -0.151556 -0.010469 -0.001248
v -0.151601 -0.009665 -0.001546
v -0.151583 -0.009669 -0.001555
v -0.150533 -0.011379 0.000229
v -0.15057 -0.011431 0.000255
v -0.147989 0.010845 -0.00373
v -0.148046 0.010893 -0.003802
v -0.148063 0.010904 -0.003813
v -0.148079 0.010915 -0.003823
v -0.148125 0.010943 -0.003851
v -0.148163 0.010963 -0.00386
v -0.148326 0.01103 -0.003845
v -0.148273 0.011012 -0.003862
v -0.148296 0.011021 -0.00386
v -0.1419 -0.011353 0.012519
v -0.141919 -0.011379 0.012531
v -0.147738 0.011442 -0.003162
v -0.147645 0.011363 -0.003215
v -0.147583 0.011246 -0.003235
v -0.141197 -0.011211 0.013491
v -0.140584 -0.010713 0.01415
v -0.178883 0.000596 0.01726
v -0.178883 -0.000596 0.01726
v -0.178383 -0.00167 0.017127
v -0.177483 -0.002413 0.016886
v -0.176361 -0.002678 0.016585
v -0.175239 -0.002413 0.016284
v -0.174339 -0.00167 0.016043
v -0.173839 -0.000596 0.015909
v -0.173839 0.000596 0.015909
v -0.137889 0.008873 0.011717
v -0.148213 0.008873 -0.003028
v -0.173322 0.000596 0.017841
v -0.173322 -0.000596 0.017841
v -0.173821 -0.00167 0.017975
v -0.174721 -0.002413 0.018216
v -0.175843 -0.002678 0.018517
v -0.176966 -0.002413 0.018817
v -0.177866 -0.00167 0.019059
v -0.178365 -0.000596 0.019192
v -0.178365 0.000596 0.019192
vn 0.0347 0.7568 0.6527
vn -0.3341 -0.3189 0.887
vn -0.4166 0 0.9091
vn 0.0347 -0.7568 0.6527
vn -0.3341 0.3189 0.887
vn -0.1086 0.5523 0.8265
vn 0.0831 -0.728 0.6805
vn 0.1994 0.6377 0.744
vn -0.1966 -0.6557 0.7289
vn 0.5074 0.5523 0.6615
vn -0.4643 -0.3786 0.8007
vn 0.7328 0.3189 0.6011
vn -0.5623 0 0.8269
vn 0.8154 0 0.579
vn -0.4643 0.3786 0.8007
vn 0.7328 -0.3189 0.6011
vn -0.1966 0.6557 0.7289
vn 0.5074 -0.5523 0.6615
vn 0.0831 0.728 0.6805
vn 0.1994 -0.6377 0.744
vn -0.1086 -0.5523 0.8266
vn -0.0398 0.6633 -0.7473
vn -0.0398 -0.6633 -0.7473
vn -0.2683 0.728 -0.6309
vn -0.5347 0.6557 -0.533
vn -0.8025 0.3786 -0.4612
vn -0.9004 0 -0.435
vn -0.8025 -0.3786 -0.4612
vn -0.5348 -0.6557 -0.533
vn -0.2683 -0.728 -0.6309
vn 0.0825 -0.7155 -0.6937
vn 0.0825 0.7155 -0.6937
vn 0.031 -0.7155 -0.6979
vn 0.031 0.7155 -0.6979
vn -0.0207 -0.7155 -0.6983
vn -0.0207 0.7155 -0.6983
vn -0.0723 -0.7155 -0.6948
vn -0.0723 0.7155 -0.6948
vn -0.1236 -0.7155 -0.6876
vn -0.1236 0.7155 -0.6876
vn -0.1741 -0.7155 -0.6765
vn -0.1741 0.7155 -0.6765
vn -0.1061 -0.6761 -0.7291
vn -0.1061 0.6761 -0.7291
vn 0.7071 0 -0.7071
vn 0.7068 0 -0.7074
vn -0.5523 0.3189 -0.7703
vn -0.6377 0 -0.7703
vn 0.3189 -0.5523 -0.7703
vn 0.5523 -0.3189 -0.7703
vn 0.6377 0 -0.7703
vn 0.5523 0.3189 -0.7703
vn 0.3189 0.5523 -0.7703
vn 0 0.6377 -0.7703
vn 0.7068 0 -0.7074
vn 0.5771 -0.5774 -0.5776
vn -0.3189 0.5523 -0.7703
vn 0.7068 0 -0.7074
vn 0.7068 0 -0.7074
vn 0.7071 0 -0.7071
vn -0.5523 -0.3189 -0.7703
vn 0.7068 0 -0.7074
vn 0.7068 0 -0.7074
vn 0.7068 0 -0.7074
vn -0.3189 -0.5523 -0.7703
vn 0.5771 0.5774 -0.5776
vn 0 -0.6377 -0.7703
vn 0.5523 -0.3189 0.7703
vn 0.0966 0.741 0.6646
vn 0.6377 0 0.7703
vn 0.0966 -0.741 0.6646
vn 0.5523 0.3189 0.7703
vn 0.3189 0.5523 0.7703
vn 0.7071 0 0.7071
vn 0.7071 0 0.7071
vn -0.6377 0 0.7703
vn -0.5523 0.3189 0.7703
vn -0.3189 0.5523 0.7703
vn 0.7074 0 0.7068
vn 0.7071 0 0.7071
vn 0.3189 -0.5523 0.7703
vn 0 -0.6377 0.7703
vn 0.7071 0 0.7071
vn 0.5776 0.5773 0.5771
vn -0.3189 -0.5523 0.7703
vn 0.7074 0 0.7068
vn -0.5523 -0.3189 0.7703
vn 0.7071 0 0.7071
vn 0.5776 -0.5773 0.5771
vn 0 0.6377 0.7703
vn -0.7071 0 0.7071
vn 0.7071 0 0.7071
vn 0.1781 0.6989 0.6927
vn 0.1781 -0.6989 0.6927
vn 0.1263 0.6989 0.704
vn 0.1263 -0.6989 0.704
vn 0.0739 0.6989 0.7114
vn 0.0739 -0.6989 0.7114
vn 0.0211 0.6989 0.7149
vn 0.0211 -0.6989 0.7149
vn -0.0318 0.6989 0.7145
vn -0.0318 -0.6989 0.7145
vn -0.0845 0.6989 0.7102
vn -0.0845 -0.6989 0.7102
vn 0.7071 -0.7071 -0.0006
vn 0.7071 0.7071 -0.0006
vn 0.5072 -0.4686 -0.7233
vn 0.8018 -0.2041 -0.5616
vn 0.8627 -0.1748 -0.4746
vn 0.7322 -0.251 -0.6331
vn 0.7987 -0.1923 -0.5702
vn -0.0058 -0.9998 0.0173
vn -0.6366 -0.7712 -0.0024
vn -0.6794 -0.7249 -0.1133
vn -0.7706 -0.6328 0.0766
vn -0.266 -0.0007 0.964
vn -0.2714 0.0146 0.9624
vn -0.6499 -0.007 -0.76
vn -0.7203 -0.4983 0.4826
vn -0.7177 -0.3732 0.5879
vn -0.7342 -0.226 0.6402
vn -0.7163 -0.6917 0.092
vn -0.7818 0.5281 0.3315
vn -0.7822 -0.5279 0.3307
vn -0.8288 -0.3147 0.4627
vn -0.1435 0.32 0.9365
vn -0.162 0.2249 0.9608
vn 0.2293 0.1206 0.9659
vn 0.0636 -0.5897 0.8051
vn -0.0865 -0.4926 0.8659
vn -0.5372 -0.1794 -0.8242
vn -0.3469 0.5474 -0.7616
vn -0.7724 -0.1047 -0.6264
vn -0.7121 -0.1325 -0.6894
vn -0.6516 -0.1555 -0.7425
vn -0.6727 -0.0803 -0.7356
vn -0.2491 0.0588 0.9667
vn -0.2487 -0.0423 0.9677
vn -0.1065 -0.8451 0.5239
vn -0.602 -0.2972 -0.7412
vn 0.3528 -0.244 -0.9033
vn 0.517 -0.2336 -0.8235
vn 0.4882 -0.3943 -0.7786
vn 0.517 -0.2339 -0.8234
vn 0.6163 -0.2282 -0.7537
vn 0.7532 -0.2075 -0.6242
vn -0.1285 -0.2292 -0.9649
vn -0.2787 -0.5444 -0.7911
vn -0.4506 -0.1868 -0.873
vn -0.2981 -0.207 -0.9318
vn 0.5814 -0.6502 -0.4891
vn 0.4635 -0.7749 -0.4298
vn 0.7669 -0.1226 -0.6299
vn 0.6304 0.0161 -0.7761
vn 0.5626 0.0687 -0.8239
vn 0.5638 0.0786 -0.8222
vn 0.4175 0.1782 -0.8911
vn 0.3217 0.234 -0.9175
vn -0.262 0.5013 -0.8246
vn 0.0417 0.378 -0.9249
vn -0.1267 0.4379 -0.8901
vn 0.7146 -0.5167 -0.4715
vn 0.6412 -0.6522 -0.4043
vn 0.1752 0.8838 -0.4339
vn 0.4945 0.6335 -0.5951
vn 0.7182 0.2602 -0.6453
vn 0.7275 -0.5809 -0.3652
vn 0.841 -0.2606 -0.4741
vn 0.935 -0.2225 -0.2763
vn 0.935 0.2225 -0.2763
vn 0.7485 0.6233 -0.2263
vn 0.4125 0.9007 -0.1363
vn -0.0064 0.9997 -0.024
vn -0.4254 0.9007 0.0883
vn -0.7614 0.6233 0.1783
vn -0.9478 0.2225 0.2283
vn -0.9478 -0.2225 0.2283
vn 0.0428 -0.6769 -0.7348
vn 0.7052 -0.6769 0.2111
vn -0.8781 -0.1671 -0.4483
vn -0.8781 0.1671 -0.4483
vn -0.7381 0.4683 -0.4858
vn -0.4856 0.6766 -0.5534
vn -0.1709 0.751 -0.6378
vn 0.1439 0.6766 -0.7221
vn 0.3963 0.4683 -0.7898
vn 0.5363 0.1671 -0.8273
vn 0.5363 -0.1671 -0.8273
f 1//1 2//2 3//3
f 1//1 3//3 4//4
f 3//3 5//5 4//4
f 4//4 5//5 6//6
f 4//4 6//6 7//7
f 7//7 6//6 8//8
f 7//7 8//8 9//9
f 9//9 8//8 10//10
f 9//9 10//10 11//11
f 11//11 10//10 12//12
f 11//11 12//12 13//13
f 13//13 12//12 14//14
f 13//13 14//14 15//15
f 15//15 14//14 16//16
f 15//15 16//16 17//17
f 17//17 16//16 18//18
f 17//17 18//18 19//19
f 19//19 18//18 20//20
f 19//19 20//20 1//1
f 1//1 20//20 21//21
f 1//1 21//21 2//2
f 31//31 32//32 33//33
f 33//33 32//32 34//34
f 33//33 34//34 35//35
f 35//35 34//34 36//36
f 35//35 36//36 37//37
f 37//37 36//36 38//38
f 37//37 38//38 39//39
f 39//39 38//38 40//40
f 39//39 40//40 41//41
f 41//41 40//40 42//42
f 41//41 42//42 43//43
f 43//43 42//42 44//44
f 45//45 46//46 47//47
f 45//45 47//47 48//48
f 49//49 50//50 44//44
f 44//44 50//50 51//51
f 44//44 51//51 43//43
f 43//43 51//51 52//52
f 52//52 53//53 43//43
f 43//43 53//53 54//54
f 54//54 55//55 56//56
f 54//54 56//56 43//43
f 55//55 54//54 57//57
f 55//55 57//57 58//58
f 58//58 57//57 47//47
f 58//58 47//47 46//46
f 45//45 48//48 59//59
f 59//59 48//48 60//60
f 48//48 61//61 62//62
f 48//48 62//62 60//60
f 62//62 61//61 63//63
f 64//64 63//63 61//61
f 64//64 61//61 65//65
f 66//66 64//64 65//65
f 66//66 65//65 44//44
f 44//44 65//65 67//67
f 44//44 67//67 49//49
f 68//68 69//69 70//70
f 70//70 69//69 71//71
f 70//70 71//71 72//72
f 72//72 71//71 73//73
f 74//74 75//75 76//76
f 77//77 78//78 79//79
f 77//77 79//79 80//80
f 68//68 81//81 69//69
f 69//69 81//81 82//82
f 69//69 82//82 83//83
f 69//69 83//83 84//84
f 82//82 85//85 86//86
f 82//82 86//86 83//83
f 87//87 88//88 86//86
f 87//87 86//86 85//85
f 79//79 78//78 71//71
f 79//79 71//71 89//89
f 71//71 78//78 90//90
f 71//71 90//90 73//73
f 88//88 87//87 76//76
f 88//88 76//76 91//91
f 91//91 76//76 75//75
f 80//80 92//92 77//77
f 76//76 77//77 92//92
f 76//76 92//92 74//74
f 71//71 69//69 93//93
f 71//71 93//93 94//94
f 94//94 93//93 95//95
f 94//94 95//95 96//96
f 96//96 95//95 97//97
f 96//96 97//97 98//98
f 98//98 97//97 99//99
f 98//98 99//99 100//100
f 100//100 99//99 101//101
f 100//100 101//101 102//102
f 102//102 101//101 103//103
f 102//102 103//103 104//104
f 105//105 43//43 56//56
f 105//105 89//89 71//71
f 105//105 71//71 43//43
f 43//43 71//71 41//41
f 41//41 71//71 94//94
f 41//41 94//94 39//39
f 39//39 94//94 96//96
f 39//39 96//96 37//37
f 37//37 96//96 98//98
f 37//37 98//98 35//35
f 35//35 98//98 100//100
f 35//35 100//100 33//33
f 33//33 100//100 102//102
f 33//33 102//102 31//31
f 31//31 102//102 104//104
f 23//23 4//4 30//30
f 30//30 4//4 7//7
f 24//24 19//19 22//22
f 22//22 19//19 1//1
f 22//22 1//1 32//32
f 32//32 103//103 34//34
f 34//34 103//103 101//101
f 34//34 101//101 36//36
f 36//36 101//101 99//99
f 36//36 99//99 38//38
f 38//38 99//99 97//97
f 38//38 97//97 40//40
f 40//40 97//97 95//95
f 40//40 95//95 42//42
f 42//42 95//95 93//93
f 42//42 93//93 44//44
f 44//44 93//93 69//69
f 69//69 106//106 66//66
f 69//69 66//66 44//44
f 84//84 106//106 69//69
f 30//30 7//7 9//9
f 30//30 9//9 29//29
f 29//29 9//9 11//11
f 29//29 11//11 28//28
f 28//28 11//11 13//13
f 28//28 13//13 27//27
f 27//27 13//13 15//15
f 27//27 15//15 26//26
f 26//26 15//15 17//17
f 26//26 17//17 25//25
f 25//25 17//17 19//19
f 25//25 19//19 24//24
f 51//51 70//70 52//52
f 52//52 70//70 72//72
f 52//52 72//72 53//53
f 53//53 72//72 73//73
f 53//53 73//73 54//54
f 54//54 73//73 90//90
f 54//54 90//90 57//57
f 57//57 90//90 78//78
f 57//57 78//78 47//47
f 47//47 78//78 77//77
f 47//47 77//77 48//48
f 48//48 77//77 76//76
f 48//48 76//76 61//61
f 61//61 76//76 87//87
f 61//61 87//87 65//65
f 65//65 87//87 85//85
f 65//65 85//85 67//67
f 67//67 85//85 82//82
f 67//67 82//82 49//49
f 49//49 82//82 81//81
f 49//49 81//81 50//50
f 50//50 81//81 68//68
f 50//50 68//68 51//51
f 51//51 68//68 70//70
f 115//115 112//112 113//113
f 115//115 113//113 114//114
f 115//115 114//114 122//122
f 119//119 125//125 120//120
f 120//120 125//125 121//121
f 126//126 127//127 128//128
f 133//133 131//131 134//134
f 134//134 131//131 135//135
f 133//133 136//136 131//131
f 131//131 136//136 118//118
f 127//127 126//126 123//123
f 124//124 139//139 130//130
f 117//117 116//116 137//137
f 137//137 116//116 138//138
f 141//141 142//142 143//143
f 142//142 144//144 143//143
f 143//143 144//144 145//145
f 143//143 145//145 146//146
f 140//140 133//133 134//134
f 140//140 134//134 135//135
f 135//135 131//131 140//140
f 140//140 131//131 149//149
f 148//148 150//150 147//147
f 110//110 146//146 111//111
f 149//149 131//131 132//132
f 153//153 111//111 146//146
f 153//153 146//146 154//154
f 154//154 146//146 155//155
f 146//146 145//145 155//155
f 155//155 145//145 144//144
f 155//155 144//144 156//156
f 156//156 144//144 157//157
f 157//157 144//144 142//142
f 157//157 142//142 158//158
f 149//149 132//132 150//150
f 150//150 132//132 159//159
f 150//150 159//159 147//147
f 142//142 141//141 158//158
f 160//160 147//147 161//161
f 161//161 147//147 159//159
f 151//151 162//162 163//163
f 151//151 163//163 152//152
f 160//160 161//161 164//164
f 166//166 156//156 165//165
f 165//165 156//156 157//157
f 166//166 155//155 156//156
f 129//129 130//130 139//139
f 167//167 108//108 168//168
f 108//108 109//109 168//168
f 178//178 179//179 107//107
f 180//180 177//177 181//181
f 181//181 177//177 176//176
f 181//181 176//176 182//182
f 182//182 176//176 175//175
f 182//182 175//175 183//183
f 183//183 175//175 174//174
f 183//183 174//174 184//184
f 184//184 174//174 173//173
f 184//184 173//173 185//185
f 185//185 173//173 172//172
f 185//185 172//172 186//186
f 186//186 172//172 171//171
f 186//186 171//171 187//187
f 187//187 171//171 170//170
f 188//188 170//170 169//169
f 105//105 56//56 55//55
f 105//105 55//55 58//58
f 79//79 89//89 105//105
f 92//92 80//80 79//79
f 75//75 74//74 92//92
f 88//88 91//91 75//75
f 84//84 83//83 86//86
f 86//86 88//88 75//75
f 75//75 92//92 79//79
f 79//79 105//105 58//58
f 46//46 45//45 59//59
f 79//79 58//58 46//46
f 86//86 75//75 79//79
f 106//106 84//84 86//86
f 64//64 66//66 106//106
f 63//63 64//64 106//106
f 106//106 86//86 79//79
f 79//79 46//46 59//59
f 59//59 60//60 62//62
f 62//62 63//63 106//106
f 106//106 79//79 59//59
f 59//59 62//62 106//106

